<svg width="141" height="70" viewBox="0 0 141 70" fill="none" xmlns="http://www.w3.org/2000/svg">
<path d="M100.348 0.025716C100.04 0.205731 101.708 3.83174 102.298 5.16899C102.837 6.40338 103.556 8.1521 104.249 10.3123L103.838 10.4923C102.529 7.07201 101.246 3.62601 99.937 0.205731C99.6034 0.514328 99.4751 0.797208 99.6034 1.20867C99.7317 1.59442 100.091 1.64585 100.194 1.85158C100.271 2.05731 100.271 2.54592 100.322 2.88024C100.348 3.24027 100.399 3.62601 100.399 3.90889C100.758 8.74357 99.8087 13.1668 98.4485 17.1271C98.4485 17.1785 98.4485 17.23 98.4485 17.2557C98.4485 17.2557 98.4485 17.2814 98.4998 17.3843L111.255 45.698L117.491 22.4247L112.667 11.5209C112.641 11.4695 112.59 11.3924 112.538 11.3409C112.487 11.2895 112.461 11.2381 112.41 11.2123C108.227 8.97502 104.377 6.04335 101.272 1.36297C101.272 1.13152 101.426 0.874357 101.297 0.540044C101.272 0.462895 101.169 0.257164 100.964 0.128582C100.784 0 100.579 0 100.527 0C100.476 0 100.399 -3.92784e-07 100.348 0.025716Z" fill="url(#paint0_linear_1_22)"/>
<path d="M120.648 28.0309C116.978 30.6797 114.489 35.0772 114.976 42.252C114.951 41.9177 114.848 36.7744 121.084 32.0426C121.7 36.0544 123.112 40.5805 125.114 45.698L111.255 45.7237C109.202 32.6855 108.124 1.41441 140.333 1.41441C140.333 1.36297 119.211 4.60324 120.648 28.0309Z" fill="#436430"/>
<path d="M127.886 51.7671H121.341C121.341 51.7671 120.366 49.6069 118.877 46.2381H125.422C126.936 49.6069 127.886 51.7671 127.886 51.7671Z" fill="#A28E64"/>
<path d="M120.597 51.7671H114.052C114.052 51.7671 113 49.6069 111.512 46.2123H118.133C119.622 49.6069 120.597 51.7671 120.597 51.7671Z" fill="#A28E64"/>
<path d="M111.127 51.7671H97.3963L79.9446 14.8126H89.1838C91.5962 14.8126 93.8033 15.9442 95.1122 17.8472L111.127 51.7671Z" fill="url(#paint1_linear_1_22)"/>
<path d="M94.1112 15.7127C92.751 14.6583 91.0314 14.0669 89.2093 14.0669H79.7135H79.6108L77.686 10.0037C77.5833 9.79794 77.7373 9.56649 77.9683 9.56649H86.8482C89.5173 9.56649 91.9554 11.1095 93.0846 13.5268L94.1112 15.7127Z" fill="#A28E64"/>
<path d="M94.3678 51.7671H80.6373L63.1855 14.8126H72.4247C74.8372 14.8126 77.0443 15.9442 78.3532 17.8472L94.3678 51.7671Z" fill="url(#paint2_linear_1_22)"/>
<path d="M77.3524 15.7127C75.9922 14.6583 74.2727 14.0669 72.4505 14.0669H62.9547H62.852L60.9272 10.0037C60.8245 9.79794 60.9785 9.56649 61.2095 9.56649H70.0894C72.7585 9.56649 75.1966 11.1095 76.3258 13.5268L77.3524 15.7127Z" fill="#A28E64"/>
<path d="M77.6091 51.7671H63.8786L46.4269 14.8126H55.6661C58.0785 14.8126 60.2856 15.9442 61.5945 17.8472L77.6091 51.7671Z" fill="url(#paint3_linear_1_22)"/>
<path d="M60.5936 15.7127C59.2334 14.6583 57.5139 14.0669 55.6917 14.0669H46.1959H46.0932L44.1684 10.0037C44.0657 9.79794 44.2197 9.56649 44.4507 9.56649H53.3306C55.9997 9.56649 58.4378 11.1095 59.567 13.5268L60.5936 15.7127Z" fill="#A28E64"/>
<path d="M0 2.16018C0 2.16018 16.6048 5.32329 33.646 16.8442C38.1886 16.0985 43.4241 17.3328 48.9676 22.6304C48.9676 22.6304 45.1436 19.0044 37.4443 19.5702C38.2399 20.1617 39.0098 20.7788 39.7798 21.396C44.579 21.4218 49.7632 23.6076 54.2801 30.3196C54.2801 30.3196 51.3801 26.0507 43.8861 24.9192C51.3801 31.7855 58.3094 40.5547 63.1343 51.7671H77.5834C77.609 51.7671 62.0821 5.60617 0 2.16018Z" fill="#436430"/>
<path d="M98.2175 57.6819C98.4741 57.6819 98.7051 57.6047 98.8848 57.4504C99.0644 57.2961 99.1671 57.1161 99.1671 56.9104C99.1671 56.7046 99.0644 56.4989 98.8848 56.3446C98.7051 56.1903 98.4741 56.1132 98.2175 56.1132C97.9609 56.1132 97.7555 56.1903 97.5759 56.3446C97.3962 56.4989 97.2936 56.6789 97.2936 56.9104C97.2936 57.1161 97.3962 57.2961 97.5759 57.4504C97.7555 57.6047 97.9609 57.6819 98.2175 57.6819Z" fill="#A28E64"/>
<path d="M96.113 57.6819C96.3696 57.6819 96.575 57.6047 96.7803 57.4504C96.9599 57.2961 97.0626 57.1161 97.0626 56.9104C97.0626 56.7046 96.9599 56.4989 96.7803 56.3446C96.6006 56.1903 96.3696 56.1132 96.113 56.1132C95.8564 56.1132 95.651 56.1903 95.4714 56.3446C95.2917 56.4989 95.1891 56.6789 95.1891 56.9104C95.1891 57.1161 95.2917 57.2961 95.4714 57.4504C95.6254 57.6047 95.8564 57.6819 96.113 57.6819Z" fill="#A28E64"/>
<path d="M114.771 58.2733H110.536V61.3336H108.868H108.355H106.533L107.713 60.2021C107.97 59.9449 108.124 59.6877 108.124 59.4306C108.124 59.122 107.944 58.8391 107.585 58.6076C107.251 58.4019 106.892 58.299 106.507 58.299H104.043C103.658 58.299 103.299 58.4019 102.965 58.6076C102.606 58.8391 102.426 59.122 102.426 59.4306C102.426 59.6877 102.555 59.9449 102.837 60.2021L104.018 61.3336H101.58H100.989H100.476V57.7847H98.5255V58.2733H96.2413C95.2404 58.2733 94.7528 58.6591 94.7528 59.4049V61.7193C94.7528 62.4908 95.2404 62.8766 96.2413 62.8766H100.989H101.58H108.355H108.868H114.771C115.772 62.8766 116.26 62.4908 116.26 61.7193V59.4306C116.26 58.6591 115.772 58.2733 114.771 58.2733ZM98.5255 61.3336H97.1139C96.7803 61.3336 96.6263 61.205 96.6263 60.9478V60.1249C96.6263 59.8677 96.7803 59.7649 97.1139 59.7649H98.5255V61.3336ZM105.275 60.5621L104.582 59.6877H105.994L105.275 60.5621ZM114.335 60.9478C114.335 61.205 114.181 61.3336 113.847 61.3336H112.436V59.8163H113.847C114.181 59.8163 114.335 59.9449 114.335 60.1763V60.9478Z" fill="#A28E64"/>
<path d="M128.322 59.4306C128.322 58.6591 127.834 58.2733 126.833 58.2733H122.368V59.7906H125.55C126.089 59.7906 126.371 60.022 126.371 60.4849V61.3079H120.597C120.263 61.3079 120.032 61.2564 119.904 61.1793C119.724 61.0764 119.647 60.8964 119.647 60.6135V54.673H117.774V61.3336C117.774 62.3365 118.39 62.8508 119.647 62.8508H120.597H121.085H128.322V59.4306Z" fill="#A28E64"/>
<path d="M125.422 63.6738C125.165 63.6738 124.96 63.7509 124.754 63.9052C124.575 64.0595 124.472 64.2395 124.472 64.4453C124.472 64.651 124.575 64.8567 124.754 65.011C124.934 65.1653 125.165 65.2425 125.422 65.2425C125.678 65.2425 125.909 65.1653 126.089 65.011C126.269 64.8567 126.371 64.6767 126.371 64.4453C126.371 64.2395 126.269 64.0595 126.089 63.9052C125.909 63.7509 125.678 63.6738 125.422 63.6738Z" fill="#A28E64"/>
<path d="M67.2663 57.6819C67.523 57.6819 67.7539 57.6047 67.9336 57.4504C68.1132 57.2961 68.2159 57.1161 68.2159 56.9104C68.2159 56.7046 68.1132 56.4989 67.9336 56.3446C67.7539 56.1903 67.523 56.1132 67.2663 56.1132C67.0097 56.1132 66.8044 56.1903 66.6247 56.3446C66.4451 56.4989 66.3424 56.6789 66.3424 56.9104C66.3424 57.1161 66.4451 57.2961 66.6247 57.4504C66.8044 57.6047 67.0097 57.6819 67.2663 57.6819Z" fill="#A28E64"/>
<path d="M65.1362 57.6819C65.3928 57.6819 65.5982 57.6047 65.8035 57.4504C65.9831 57.2961 66.0858 57.1161 66.0858 56.9104C66.0858 56.7046 65.9831 56.4989 65.8035 56.3446C65.6238 56.1903 65.3928 56.1132 65.1362 56.1132C64.8796 56.1132 64.6742 56.1903 64.4946 56.3446C64.3149 56.4989 64.2123 56.6789 64.2123 56.9104C64.2123 57.1161 64.3149 57.2961 64.4946 57.4504C64.6742 57.6047 64.8796 57.6819 65.1362 57.6819Z" fill="#A28E64"/>
<path d="M76.7877 56.8847C76.7877 57.0904 76.8904 57.2961 77.07 57.4504C77.2497 57.6047 77.4807 57.6819 77.7373 57.6819C77.9939 57.6819 78.1993 57.6047 78.4046 57.4504C78.5842 57.2961 78.6869 57.1161 78.6869 56.8847C78.6869 56.6789 78.5842 56.4989 78.4046 56.3446C78.2249 56.1903 77.9939 56.1132 77.7373 56.1132C77.4807 56.1132 77.2753 56.1903 77.07 56.3446C76.8647 56.4732 76.7877 56.6532 76.7877 56.8847Z" fill="#A28E64"/>
<path d="M76.6595 56.2417C76.9162 56.2417 77.1472 56.1646 77.3268 56.0103C77.5065 55.856 77.6091 55.676 77.6091 55.4445C77.6091 55.2388 77.5065 55.0588 77.3268 54.9045C77.1472 54.7502 76.9162 54.673 76.6595 54.673C76.4029 54.673 76.1976 54.7502 75.9923 54.9045C75.8126 55.0588 75.71 55.2388 75.71 55.4445C75.71 55.6503 75.8126 55.8303 75.9923 56.0103C76.1719 56.1646 76.4029 56.2417 76.6595 56.2417Z" fill="#A28E64"/>
<path d="M75.5815 57.6561C75.8382 57.6561 76.0691 57.579 76.2488 57.4247C76.4284 57.2704 76.5311 57.0904 76.5311 56.8846C76.5311 56.6789 76.4284 56.4732 76.2488 56.3189C76.0691 56.1646 75.8382 56.0874 75.5815 56.0874C75.3249 56.0874 75.1196 56.1646 74.9399 56.3189C74.7603 56.4732 74.6576 56.6532 74.6576 56.8846C74.6576 57.0904 74.7603 57.2704 74.9399 57.4247C75.1196 57.579 75.3249 57.6561 75.5815 57.6561Z" fill="#A28E64"/>
<path d="M83.9226 63.6738C83.6659 63.6738 83.4606 63.7509 83.281 63.9052C83.1013 64.0595 82.9987 64.2395 82.9987 64.4453C82.9987 64.651 83.1013 64.8567 83.281 65.011C83.4606 65.1653 83.6916 65.2425 83.9226 65.2425C84.1792 65.2425 84.3845 65.1653 84.5898 65.011C84.7695 64.8567 84.8722 64.6767 84.8722 64.4453C84.8722 64.2395 84.7695 64.0595 84.5898 63.9052C84.4102 63.7509 84.1792 63.6738 83.9226 63.6738Z" fill="#A28E64"/>
<path d="M86.0526 63.6738C85.7959 63.6738 85.5906 63.7509 85.411 63.9052C85.2313 64.0595 85.1287 64.2395 85.1287 64.4453C85.1287 64.651 85.2313 64.8567 85.411 65.011C85.5906 65.1653 85.7959 65.2425 86.0526 65.2425C86.3092 65.2425 86.5402 65.1653 86.7199 65.011C86.8995 64.8567 87.0022 64.6767 87.0022 64.4453C87.0022 64.2395 86.8995 64.0595 86.7199 63.9052C86.5402 63.7509 86.3092 63.6738 86.0526 63.6738Z" fill="#A28E64"/>
<path d="M89.697 63.6738C89.4404 63.6738 89.2351 63.7509 89.0297 63.9052C88.8501 64.0595 88.7474 64.2395 88.7474 64.4453C88.7474 64.651 88.8501 64.8567 89.0297 65.011C89.2094 65.1653 89.4404 65.2425 89.697 65.2425C89.9537 65.2425 90.1846 65.1653 90.3643 65.011C90.5439 64.8567 90.6466 64.6767 90.6466 64.4453C90.6466 64.2395 90.5439 64.0595 90.3643 63.9052C90.1846 63.7509 89.9537 63.6738 89.697 63.6738Z" fill="#A28E64"/>
<path d="M88.7732 60.6392C88.7732 60.9735 88.6705 61.205 88.4395 61.2821C88.3369 61.3336 88.0546 61.3336 87.5926 61.3336H86.643H85.9758V58.299H84.1023V61.3336H82.4854H81.9721H81.3049V58.2733H79.4314V61.3336H77.7118V58.2733H75.8384V61.3336H74.1445V58.2733H72.271V61.3336H70.6028H70.1152H69.5249V57.7847H67.5744V58.2733H65.2903C64.2894 58.2733 63.8018 58.6591 63.8018 59.4049V61.6936C63.8018 62.4651 64.2894 62.8508 65.2903 62.8508H70.1409H70.6285H82.0235H82.5367H86.6687H87.1563H88.7732C90.0307 62.8508 90.6724 62.3365 90.6724 61.3079V58.2733H88.7989V60.6392H88.7732ZM67.5744 61.3336H66.1629C65.8292 61.3336 65.6753 61.205 65.6753 60.9478V60.1249C65.6753 59.8677 65.8292 59.7649 66.1629 59.7649H67.5744V61.3336Z" fill="#A28E64"/>
<path d="M65.9317 66.2454H66.9583V68.4313C66.9583 68.637 66.9327 68.8428 66.8557 69.0485C66.8043 69.2285 66.7017 69.4085 66.5734 69.5628C66.445 69.7171 66.291 69.82 66.1627 69.8714C65.9574 69.9486 65.7264 70 65.4441 70C65.2901 70 65.1105 69.9743 64.9052 69.9743C64.6999 69.9486 64.5459 69.8971 64.4176 69.82C64.2892 69.7428 64.1609 69.64 64.0582 69.5114C63.9556 69.3828 63.8786 69.2285 63.8273 69.0999C63.7503 68.8685 63.7246 68.6628 63.7246 68.4827V66.2968H64.7512V68.5342C64.7512 68.7399 64.8025 68.8942 64.9052 68.9971C65.0078 69.0999 65.1361 69.1771 65.3415 69.1771C65.5211 69.1771 65.6494 69.1256 65.7521 69.0228C65.8548 68.9199 65.9061 68.7656 65.9061 68.5599V66.2454H65.9317Z" fill="#446430"/>
<path d="M68.0363 66.2454H69.0115L70.2691 68.277V66.2454H71.2443V69.9229H70.2691L69.0115 67.8913V69.9229H68.0363V66.2454Z" fill="#446430"/>
<path d="M73.4001 66.2454H72.3479V69.9229H73.4001V66.2454Z" fill="#446430"/>
<path d="M74.1699 66.2454H75.2735L76.0178 68.8942L76.762 66.2454H77.8399L76.5824 69.9229H75.4531L74.1699 66.2454Z" fill="#446430"/>
<path d="M78.5331 66.2454H81.3305V67.0169H79.5853V67.6084H81.2022V68.3542H79.5853V69.0742H81.3818V69.9229H78.5331V66.2454Z" fill="#446430"/>
<path d="M82.3057 69.9229V66.2454H84.0508C84.3845 66.2454 84.6155 66.2711 84.7951 66.3226C84.9748 66.374 85.1031 66.5026 85.2057 66.6569C85.3084 66.8112 85.3597 67.0169 85.3597 67.2484C85.3597 67.4541 85.3084 67.6341 85.2314 67.7884C85.1544 67.9427 85.0518 68.0456 84.8978 68.1484C84.8208 68.1999 84.6925 68.2513 84.5385 68.3027C84.6668 68.3542 84.7438 68.4056 84.8208 68.4313C84.8464 68.457 84.9234 68.5342 85.0004 68.637C85.0774 68.7399 85.1287 68.817 85.1544 68.8685L85.6677 69.9229H84.4871L83.9225 68.7913C83.8455 68.637 83.7942 68.5599 83.7429 68.5085C83.6659 68.457 83.5889 68.4313 83.4862 68.4313H83.3579V69.9229H82.3057ZM83.3579 67.737H83.7942C83.8455 67.737 83.9225 67.7112 84.0765 67.6855C84.1535 67.6598 84.2048 67.6341 84.2562 67.5569C84.3075 67.5055 84.3331 67.4284 84.3331 67.3512C84.3331 67.2226 84.3075 67.1455 84.2305 67.0683C84.1535 67.0169 84.0252 66.9655 83.8455 66.9655H83.3579V67.737Z" fill="#446430"/>
<path d="M86.1554 68.6885L87.1563 68.6113C87.182 68.7913 87.2333 68.9199 87.2846 69.0228C87.3873 69.1771 87.5413 69.2542 87.7466 69.2542C87.9006 69.2542 88.0032 69.2285 88.0802 69.1514C88.1572 69.0742 88.2085 68.9971 88.2085 68.8942C88.2085 68.7913 88.1572 68.7142 88.1059 68.637C88.0289 68.5599 87.8492 68.4827 87.5669 68.4313C87.105 68.3284 86.797 68.1741 86.5917 67.9941C86.3864 67.8141 86.3094 67.5826 86.3094 67.2741C86.3094 67.094 86.3607 66.914 86.4634 66.734C86.566 66.554 86.72 66.4254 86.9253 66.3483C87.1306 66.2454 87.413 66.194 87.7466 66.194C88.1829 66.194 88.5165 66.2711 88.7218 66.4511C88.9528 66.6311 89.0811 66.914 89.1325 67.2741L88.1572 67.3255C88.1316 67.1712 88.0802 67.0426 88.0032 66.9655C87.9262 66.8883 87.7979 66.8626 87.6439 66.8626C87.5156 66.8626 87.4386 66.8883 87.3616 66.9397C87.3103 66.9912 87.259 67.0683 87.259 67.1455C87.259 67.1969 87.2846 67.2483 87.336 67.2998C87.3873 67.3512 87.4899 67.4026 87.6953 67.4284C88.1572 67.5312 88.4652 67.6341 88.6705 67.7627C88.8758 67.8655 89.0041 68.0198 89.1068 68.1741C89.1838 68.3284 89.2351 68.5084 89.2351 68.7142C89.2351 68.9456 89.1838 69.1771 89.0555 69.3571C88.9272 69.5628 88.7732 69.7171 88.5422 69.82C88.3369 69.9228 88.0546 69.9743 87.7209 69.9743C87.1563 69.9743 86.7457 69.8457 86.5404 69.6142C86.3094 69.3828 86.1811 69.0742 86.1554 68.6885Z" fill="#446430"/>
<path d="M91.1855 66.2454H90.1333V69.9229H91.1855V66.2454Z" fill="#446430"/>
<path d="M92.0581 66.2454H95.2148V67.1455H94.1626V69.9229H93.1103V67.1455H92.0581V66.2454Z" fill="#446430"/>
<path d="M95.728 66.2454H96.8829L97.5502 67.4798L98.2431 66.2454H99.3724L98.0635 68.3799V69.9229H97.0369V68.3799L95.728 66.2454Z" fill="#446430"/>
<path d="M101.888 68.0713C101.888 67.4798 102.042 66.9912 102.35 66.6826C102.658 66.3483 103.094 66.1683 103.633 66.1683C104.197 66.1683 104.634 66.3226 104.916 66.6569C105.224 66.9912 105.378 67.4541 105.378 68.0456C105.378 68.4827 105.301 68.817 105.173 69.0999C105.044 69.3828 104.839 69.5885 104.608 69.7428C104.351 69.8971 104.044 69.9743 103.684 69.9743C103.299 69.9743 102.991 69.8971 102.735 69.7686C102.478 69.64 102.273 69.4342 102.119 69.1514C101.965 68.8685 101.888 68.5084 101.888 68.0713ZM102.94 68.0713C102.94 68.4313 102.991 68.7142 103.12 68.8685C103.248 69.0228 103.428 69.0999 103.633 69.0999C103.864 69.0999 104.018 69.0228 104.146 68.8685C104.274 68.7142 104.326 68.4313 104.326 68.0198C104.326 67.6855 104.274 67.4284 104.12 67.2741C103.992 67.1198 103.813 67.0426 103.607 67.0426C103.402 67.0426 103.222 67.1198 103.094 67.2741C102.991 67.4541 102.94 67.7112 102.94 68.0713Z" fill="#446430"/>
<path d="M107.277 67.2484H107.713V67.9941H107.277V69.8971H106.327V67.9941H105.968V67.2484H106.327V67.1198C106.327 67.0169 106.327 66.8883 106.353 66.7597C106.379 66.6312 106.404 66.5283 106.481 66.4511C106.533 66.374 106.635 66.2968 106.738 66.2454C106.841 66.194 106.995 66.1683 107.2 66.1683C107.354 66.1683 107.611 66.194 107.919 66.2197L107.816 66.8369C107.713 66.8112 107.611 66.8112 107.534 66.8112C107.457 66.8112 107.38 66.8369 107.354 66.8626C107.328 66.8883 107.303 66.9397 107.277 67.0169C107.303 67.0426 107.277 67.1455 107.277 67.2484Z" fill="#446430"/>
<path d="M110.716 66.2454H112.667C113 66.2454 113.231 66.3226 113.411 66.5026C113.59 66.6826 113.667 66.8883 113.667 67.1455C113.667 67.3512 113.616 67.5569 113.488 67.7112C113.411 67.8141 113.282 67.8913 113.129 67.9684C113.359 68.0198 113.539 68.1484 113.667 68.3027C113.77 68.457 113.847 68.6628 113.847 68.8942C113.847 69.0742 113.796 69.2542 113.719 69.4085C113.642 69.5628 113.513 69.6914 113.385 69.7686C113.308 69.82 113.154 69.8714 113 69.8971C112.769 69.9229 112.615 69.9486 112.538 69.9486H110.742V66.2454H110.716ZM111.768 67.6855H112.23C112.384 67.6855 112.513 67.6598 112.564 67.5827C112.615 67.5312 112.667 67.4284 112.667 67.3255C112.667 67.2226 112.641 67.1455 112.564 67.0683C112.487 67.0169 112.384 66.9655 112.23 66.9655H111.768V67.6855ZM111.768 69.1256H112.307C112.487 69.1256 112.615 69.0999 112.692 69.0228C112.769 68.9456 112.795 68.8685 112.795 68.7399C112.795 68.637 112.769 68.5342 112.692 68.4827C112.615 68.4056 112.487 68.3799 112.307 68.3799H111.768V69.1256Z" fill="#446430"/>
<path d="M115.849 66.2454H114.797V69.9229H115.849V66.2454Z" fill="#446430"/>
<path d="M116.773 68.6885L117.774 68.6113C117.8 68.7913 117.851 68.9199 117.902 69.0228C118.005 69.1771 118.159 69.2542 118.364 69.2542C118.518 69.2542 118.621 69.2285 118.698 69.1514C118.775 69.0742 118.826 68.9971 118.826 68.8942C118.826 68.7913 118.775 68.7142 118.723 68.637C118.646 68.5599 118.467 68.4827 118.184 68.4313C117.723 68.3284 117.415 68.1741 117.209 67.9941C117.004 67.8141 116.927 67.5826 116.927 67.2741C116.927 67.094 116.978 66.914 117.081 66.734C117.184 66.554 117.338 66.4254 117.543 66.3483C117.748 66.2454 118.03 66.194 118.364 66.194C118.8 66.194 119.134 66.2711 119.339 66.4511C119.57 66.6311 119.699 66.914 119.75 67.2741L118.775 67.3255C118.749 67.1712 118.698 67.0426 118.621 66.9655C118.544 66.8883 118.415 66.8626 118.287 66.8626C118.159 66.8626 118.082 66.8883 118.005 66.9397C117.954 66.9912 117.902 67.0683 117.902 67.1455C117.902 67.1969 117.928 67.2483 117.979 67.2998C118.03 67.3512 118.133 67.4026 118.338 67.4284C118.8 67.5312 119.108 67.6341 119.314 67.7627C119.519 67.8655 119.647 68.0198 119.75 68.1741C119.827 68.3284 119.878 68.5084 119.878 68.7142C119.878 68.9456 119.827 69.1771 119.699 69.3571C119.57 69.5628 119.416 69.7171 119.185 69.82C118.98 69.9228 118.698 69.9743 118.364 69.9743C117.8 69.9743 117.389 69.8457 117.184 69.6142C116.901 69.3828 116.799 69.0742 116.773 68.6885Z" fill="#446430"/>
<path d="M120.699 66.2454H121.752V67.5312H122.881V66.2454H123.933V69.9229H122.881V68.4313H121.752V69.9229H120.699V66.2454Z" fill="#446430"/>
<path d="M127.064 69.3057H125.884L125.73 69.9229H124.678L125.935 66.2454H127.064L128.322 69.9229H127.244L127.064 69.3057ZM126.859 68.5085L126.5 67.1969L126.14 68.5085H126.859Z" fill="#446430"/>
<defs>
<linearGradient id="paint0_linear_1_22" x1="98.445" y1="22.832" x2="117.495" y2="22.832" gradientUnits="userSpaceOnUse">
<stop stop-color="#436430"/>
<stop offset="0.1313" stop-color="#416030"/>
<stop offset="0.2899" stop-color="#3B572F"/>
<stop offset="0.4625" stop-color="#31482C"/>
<stop offset="0.6453" stop-color="#243526"/>
<stop offset="0.8337" stop-color="#131D19"/>
<stop offset="1" stop-color="#020203"/>
</linearGradient>
<linearGradient id="paint1_linear_1_22" x1="79.9511" y1="33.2898" x2="111.139" y2="33.2898" gradientUnits="userSpaceOnUse">
<stop stop-color="#436430"/>
<stop offset="0.1313" stop-color="#416030"/>
<stop offset="0.2899" stop-color="#3B572F"/>
<stop offset="0.4625" stop-color="#31482C"/>
<stop offset="0.6453" stop-color="#243526"/>
<stop offset="0.8337" stop-color="#131D19"/>
<stop offset="1" stop-color="#020203"/>
</linearGradient>
<linearGradient id="paint2_linear_1_22" x1="63.187" y1="33.2898" x2="94.3745" y2="33.2898" gradientUnits="userSpaceOnUse">
<stop stop-color="#436430"/>
<stop offset="0.1313" stop-color="#416030"/>
<stop offset="0.2899" stop-color="#3B572F"/>
<stop offset="0.4625" stop-color="#31482C"/>
<stop offset="0.6453" stop-color="#243526"/>
<stop offset="0.8337" stop-color="#131D19"/>
<stop offset="1" stop-color="#020203"/>
</linearGradient>
<linearGradient id="paint3_linear_1_22" x1="46.4232" y1="33.2898" x2="77.6108" y2="33.2898" gradientUnits="userSpaceOnUse">
<stop stop-color="#436430"/>
<stop offset="0.1313" stop-color="#416030"/>
<stop offset="0.2899" stop-color="#3B572F"/>
<stop offset="0.4625" stop-color="#31482C"/>
<stop offset="0.6453" stop-color="#243526"/>
<stop offset="0.8337" stop-color="#131D19"/>
<stop offset="1" stop-color="#020203"/>
</linearGradient>
</defs>
</svg>
