<?xml version="1.0" encoding="UTF-8"?>
<svg id="Layer_1" data-name="Layer 1" xmlns="http://www.w3.org/2000/svg" version="1.1" xmlns:xlink="http://www.w3.org/1999/xlink" viewBox="0 0 377.7 124">
  <defs>
    <style>
      .cls-1 {
        fill: url(#linear-gradient);
      }

      .cls-1, .cls-2, .cls-3, .cls-4, .cls-5, .cls-6, .cls-7, .cls-8, .cls-9 {
        stroke-width: 0px;
      }

      .cls-2 {
        fill: #a38f65;
      }

      .cls-3 {
        fill: none;
      }

      .cls-4 {
        fill: #a38f66;
      }

      .cls-5 {
        fill: #44652f;
      }

      .cls-6 {
        fill: url(#linear-gradient-2);
      }

      .cls-7 {
        fill: url(#linear-gradient-3);
      }

      .cls-10 {
        clip-path: url(#clippath);
      }

      .cls-8 {
        fill: #45652f;
      }

      .cls-9 {
        fill: url(#linear-gradient-4);
      }
    </style>
    <clipPath id="clippath">
      <path class="cls-3" d="M293.7,27.6c1.7,4.6,3.5,9.1,5.2,13.7l-.5.2c-1.8-4.5-3.5-9.1-5.2-13.7-.4.3-.6.8-.4,1.3.2.5.7.6.8.8.1.4.2.9.2,1.4,0,.5,0,1,.1,1.4.3,6-.6,11.9-2.6,17.6h.1-.1l-.2-.4.3.6,17,37.7,8.3-30.9-6.5-14.4v-.3h-.2c0-.1-.1-.1-.1-.1-6-3-11-7.5-14.8-13,0-.3.2-.7,0-1.1-.2-.4-.6-.7-1-.7h-.2"/>
    </clipPath>
    <linearGradient id="linear-gradient" x1="-384.7" y1="-90.1" x2="-383.8" y2="-90.1" gradientTransform="translate(15434.5 -3487.7) scale(39.4 -39.4)" gradientUnits="userSpaceOnUse">
      <stop offset="0" stop-color="#44652f"/>
      <stop offset=".2" stop-color="#41602e"/>
      <stop offset=".4" stop-color="#385026"/>
      <stop offset=".6" stop-color="#27381e"/>
      <stop offset=".9" stop-color="#141911"/>
      <stop offset="1" stop-color="#030303"/>
    </linearGradient>
    <linearGradient id="linear-gradient-2" x1="266.5" y1="53" x2="308" y2="53" gradientTransform="translate(0 124.8) scale(1 -1)" xlink:href="#linear-gradient"/>
    <linearGradient id="linear-gradient-3" x1="244.2" y1="53" x2="285.7" y2="53" gradientTransform="translate(0 124.8) scale(1 -1)" xlink:href="#linear-gradient"/>
    <linearGradient id="linear-gradient-4" x1="221.8" y1="53" x2="263.4" y2="53" gradientTransform="translate(0 124.8) scale(1 -1)" xlink:href="#linear-gradient"/>
  </defs>
  <g id="Layer_1-2" data-name="Layer 1-2">
    <g class="cls-10">
      <polygon class="cls-1" points="290.5 88.3 326 88.3 326.4 27.6 290.9 27.6 290.5 88.3"/>
    </g>
    <path class="cls-5" d="M320.7,64.8c-4.8,3.5-8.2,9.4-7.6,18.9,0-.4-.2-7.3,8.1-13.6,1.1,6.2,2.9,12.3,5.4,18.2h-18.5c-2.7-17.3-4.2-58.9,38.8-58.9,0,0-28.2,4.3-26.2,35.4"/>
    <path class="cls-4" d="M330.4,96.4h-8.7l-3.3-7.4h8.7l3.3,7.4"/>
    <path class="cls-4" d="M320.6,96.4h-8.7s-1.4-2.9-3.4-7.4h8.8l3.3,7.4"/>
    <path class="cls-6" d="M308,96.4h-18.3l-23.3-49.1h12.3c3.1,0,6.1,1.5,7.9,4l21.3,45.1Z"/>
    <path class="cls-2" d="M285.3,48.5c-1.9-1.4-4.2-2.2-6.5-2.2h-12.8l-2.6-5.4c0-.2,0-.4.2-.5,0,0,.1,0,.2,0h11.8c3.6,0,6.8,2,8.3,5.3l1.4,2.9Z"/>
    <path class="cls-7" d="M285.7,96.4h-18.3l-23.3-49.1h12.3c3.1,0,6.1,1.5,7.9,4l21.3,45.1Z"/>
    <path class="cls-4" d="M263,48.5c-1.9-1.4-4.2-2.2-6.5-2.2h-12.7l-2.5-5.4c0-.2,0-.4.2-.5,0,0,.1,0,.2,0h11.8c3.6,0,6.8,2,8.3,5.3l1.4,2.9Z"/>
    <path class="cls-9" d="M263.4,96.4h-18.3l-23.3-49.1h12.4c3.1,0,6.1,1.5,7.9,4l21.3,45.1Z"/>
    <path class="cls-4" d="M240.7,48.5c-1.9-1.4-4.2-2.2-6.6-2.2h-12.8l-2.5-5.4c-.1-.2,0-.4.2-.5,0,0,.1,0,.2,0h11.8c3.6,0,6.8,2,8.3,5.3l1.4,2.9Z"/>
    <path class="cls-5" d="M160,30.5c16,3.7,31.2,10.3,44.8,19.5,6.1-1,13,.6,20.4,7.7,0,0-5.1-4.8-15.3-4.1,1,.8,2.1,1.6,3.1,2.4,6.4,0,13.3,2.9,19.4,11.9,0,0-3.9-5.7-13.8-7.2,11,9.9,19.7,22.1,25.6,35.7h19.3s-20.7-61.4-103.4-65.9"/>
  </g>
  <g>
    <path class="cls-4" d="M124,63.2c.7,0,1.3-.2,1.8-.6.8-.6,1-1.8.4-2.6-.1-.1-.2-.3-.4-.4-.5-.4-1.1-.6-1.8-.6-.6,0-1.3.2-1.7.6-.8.6-1,1.8-.4,2.6.1.1.2.3.4.4.5.4,1.1.6,1.7.6"/>
    <path class="cls-4" d="M118.3,63.2c.6,0,1.3-.2,1.8-.6.8-.6,1-1.8.4-2.6-.1-.1-.2-.3-.4-.4-.5-.4-1.1-.6-1.8-.6-.6,0-1.3.2-1.8.6-.8.6-1,1.8-.4,2.6.1.1.2.3.4.4.5.4,1.1.6,1.8.6"/>
    <path class="cls-4" d="M168.8,64.8h-11.5v8.2h-10.8l3.2-3.1c.6-.5,1-1.3,1.1-2.1,0-.9-.6-1.8-1.5-2.2-.9-.6-1.9-.9-2.9-.9h-6.7c-1,0-2,.3-2.9.9-.8.4-1.4,1.3-1.5,2.2,0,.8.4,1.6,1.1,2.1l3.2,3.1h-9.5v-9.6h-5.3v1.3h-6.2c-2.7,0-4,1-4,3.1v6.2c0,2.1,1.4,3.1,4,3.1h50.1c2.7,0,4.1-1,4.1-3.1v-6.2c0-2.1-1.4-3.1-4.1-3.1M124.8,73h-3.8c-.9,0-1.3-.3-1.3-1v-2.2c0-.7.4-1,1.3-1h3.8v4.2ZM143.1,70.9l-1.8-2.5h3.8l-2,2.5ZM167.7,72c0,.7-.4,1-1.3,1h-3.8v-4.1h3.8c.9,0,1.3.3,1.3,1v2.1Z"/>
    <path class="cls-4" d="M205.4,67.9c0-2.1-1.4-3.1-4.1-3.1h-12.1v4.1h8.5c1.5,0,2.2.6,2.2,1.9v2.2h-15.6c-.6,0-1.3,0-1.9-.3-.5-.4-.8-.9-.7-1.6v-16h-5.1v18c0,2.7,1.7,4.1,5.1,4.1h23.5v-9.3Z"/>
    <path class="cls-4" d="M197.6,79.3c-.6,0-1.3.2-1.8.6-.8.6-1,1.8-.4,2.6.1.1.2.3.4.4.5.4,1.1.7,1.8.6.7,0,1.3-.2,1.8-.6.8-.6,1-1.8.4-2.6-.1-.1-.2-.3-.4-.4-.5-.4-1.1-.6-1.8-.6"/>
    <path class="cls-4" d="M40.4,63.2c.7,0,1.3-.2,1.8-.6.8-.6,1-1.8.4-2.6-.1-.1-.2-.3-.4-.4-.5-.4-1.1-.6-1.8-.6-.6,0-1.3.2-1.7.6-.8.6-1,1.8-.4,2.6.1.1.2.3.4.4.5.4,1.1.7,1.7.6"/>
    <path class="cls-4" d="M34.5,63.2c.6,0,1.3-.2,1.8-.6.8-.6,1-1.8.4-2.6-.1-.1-.2-.3-.4-.4-1-.8-2.5-.8-3.5,0-.8.6-1,1.8-.4,2.6.1.2.2.3.4.4.5.4,1.1.7,1.8.6"/>
    <path class="cls-4" d="M66,61c0,.6.3,1.1.7,1.5,1,.8,2.5.8,3.6,0,.5-.4.7-.9.7-1.5,0-.6-.3-1.1-.7-1.5-1-.9-2.5-.9-3.6,0-.5.3-.7.9-.7,1.5"/>
    <path class="cls-4" d="M65.7,59.3c.7,0,1.3-.2,1.8-.6.8-.6,1-1.8.4-2.6-.1-.1-.2-.3-.4-.4-1-.8-2.5-.8-3.6,0-.8.6-1,1.8-.4,2.6.1.1.2.3.4.4.5.4,1.1.6,1.8.6"/>
    <path class="cls-4" d="M62.8,63.1c.7,0,1.3-.2,1.8-.6.5-.4.7-.9.7-1.5,0-.6-.3-1.1-.7-1.5-.5-.4-1.1-.6-1.8-.6-.6,0-1.3.2-1.8.6-.5.3-.7.9-.7,1.5,0,.6.3,1.1.7,1.5.5.4,1.1.6,1.8.6"/>
    <path class="cls-4" d="M85.3,79.3c-.6,0-1.3.2-1.7.6-.8.6-1,1.8-.4,2.6.1.2.2.3.4.4,1,.9,2.5.9,3.5,0,.8-.6,1-1.8.4-2.6-.1-.1-.2-.3-.4-.4-.5-.4-1.1-.6-1.8-.6"/>
    <path class="cls-4" d="M91.1,79.3c-.6,0-1.3.2-1.8.6-.8.6-1,1.8-.4,2.6.1.1.2.3.4.4.5.4,1.1.7,1.8.6.7,0,1.3-.2,1.8-.6.8-.6,1-1.8.4-2.6-.1-.1-.2-.3-.4-.4-.5-.4-1.1-.6-1.8-.6"/>
    <path class="cls-4" d="M100.9,79.3c-.6,0-1.3.2-1.8.6-.8.6-1,1.8-.4,2.6.1.1.2.3.4.4.5.4,1.1.7,1.8.6.7,0,1.3-.2,1.8-.6.8-.6,1-1.8.4-2.6-.1-.1-.2-.3-.4-.4-.5-.4-1.1-.6-1.8-.6"/>
    <path class="cls-4" d="M98.4,71.1c.1.7-.3,1.4-.9,1.7-.7.1-1.5.2-2.3.1h-4.4v-8.1h-4.9v8.2h-7.7v-8.4h-5.1v8.2h-4.7v-8.2h-5v8.2h-4.6v-8.2h-5.1v8.2h-7.4v-9.6h-5.4v1.3h-6.2c-2.7,0-4,1-4,3.1v6.2c0,2.1,1.3,3.1,4,3.1h63.5c3.4,0,5.1-1.4,5.1-4.2v-8h-5v6.2ZM41.1,73h-3.9c-.9,0-1.3-.3-1.3-1v-2.2c0-.7.4-1,1.3-1h3.9v4.2Z"/>
    <path class="cls-8" d="M36.6,86.3h2.8v5.9c0,.6,0,1.1-.2,1.7-.2.5-.4,1-.8,1.4-.3.4-.7.6-1.1.8-.6.2-1.3.3-2,.3-.5,0-1,0-1.5,0-.5,0-.9-.2-1.3-.4-.4-.2-.7-.5-1-.9-.3-.3-.5-.7-.6-1.2-.2-.5-.3-1.1-.3-1.7v-5.9h2.8v6.1c0,.5.1.9.4,1.3.3.3.7.5,1.2.4.4,0,.8-.1,1.1-.4.3-.4.5-.8.4-1.3v-6.2Z"/>
    <polygon class="cls-8" points="42.3 86.3 44.9 86.3 48.4 91.8 48.4 86.3 51 86.3 51 96.2 48.4 96.2 45 90.8 45 96.2 42.3 96.2 42.3 86.3"/>
    <rect class="cls-8" x="54" y="86.3" width="2.8" height="9.9"/>
    <polygon class="cls-8" points="58.9 86.3 61.9 86.3 63.9 93.4 66 86.3 68.8 86.3 65.4 96.2 62.4 96.2 58.9 86.3"/>
    <polygon class="cls-8" points="70.7 86.3 78.3 86.3 78.3 88.4 73.6 88.4 73.6 90 77.9 90 77.9 92 73.6 92 73.6 94 78.4 94 78.4 96.2 70.7 96.2 70.7 86.3"/>
    <path class="cls-8" d="M81,96.2v-9.8h4.7c.7,0,1.3,0,2,.2.5.2.9.5,1.1.9.3.5.4,1,.4,1.6,0,.5,0,1-.3,1.4-.2.4-.5.7-.9,1-.3.2-.6.3-1,.4.3,0,.5.2.7.4l.4.5c.1.2.3.4.4.6l1.4,2.9h-3.2l-1.5-3c-.1-.3-.3-.5-.5-.8-.2-.1-.4-.2-.7-.2h-.2v4h-2.8ZM83.8,90.3h1.2c.3,0,.5,0,.8,0,.2,0,.3-.2.4-.3.1-.2.2-.4.2-.6,0-.3,0-.5-.3-.7-.3-.2-.7-.3-1.1-.3h-1.2v1.9Z"/>
    <path class="cls-8" d="M91.3,92.9l2.7-.2c0,.4.2.8.4,1.1.3.4.7.6,1.2.6.3,0,.7,0,.9-.3.4-.4.4-1,0-1.4,0,0,0,0,0,0-.4-.3-.9-.5-1.5-.6-1-.2-1.9-.6-2.6-1.2-.5-.5-.8-1.2-.8-1.9,0-.5.1-1,.4-1.5.3-.5.7-.8,1.2-1.1.7-.3,1.5-.4,2.2-.4.9,0,1.9.2,2.7.7.7.6,1.1,1.4,1.1,2.2l-2.7.2c0-.4-.2-.7-.4-1-.3-.2-.6-.3-.9-.3-.3,0-.5,0-.7.2-.2.2-.2.4-.2.6,0,.2,0,.3.2.4.3.2.6.3.9.4.9.2,1.8.5,2.6.9,1,.4,1.6,1.4,1.5,2.5,0,.6-.2,1.2-.5,1.8-.3.5-.8,1-1.4,1.2-.7.3-1.5.5-2.2.4-1.2.1-2.3-.2-3.2-1-.6-.7-1-1.5-1-2.5"/>
    <rect class="cls-8" x="102.1" y="86.3" width="2.8" height="9.9"/>
    <polygon class="cls-8" points="107.3 86.3 115.9 86.3 115.9 88.7 113 88.7 113 96.2 110.2 96.2 110.2 88.7 107.3 88.7 107.3 86.3"/>
    <polygon class="cls-8" points="117.2 86.3 120.4 86.3 122.2 89.6 124 86.3 127.2 86.3 123.6 92 123.6 96.2 120.8 96.2 120.8 92 117.2 86.3"/>
    <path class="cls-8" d="M133.9,91.3c0-1.4.3-2.7,1.2-3.8.9-.9,2.2-1.4,3.5-1.4,1.3,0,2.6.4,3.5,1.3.9,1,1.3,2.4,1.2,3.7,0,1-.1,2-.5,2.9-.3.7-.9,1.3-1.6,1.7-.7.4-1.6.6-2.5.6-.8,0-1.7-.2-2.5-.5-.7-.4-1.3-1-1.6-1.7-.5-.9-.8-1.9-.8-2.9M136.7,91.3c0,.8.1,1.5.5,2.2.3.4.9.7,1.4.7.5,0,1.1-.2,1.4-.6.4-.7.6-1.5.5-2.3,0-.7-.1-1.4-.5-2-.3-.4-.9-.7-1.4-.7-.5,0-1.1.2-1.4.7-.4.6-.6,1.4-.5,2.2"/>
    <path class="cls-8" d="M148.6,89h1.2v2h-1.2v5.2h-2.5v-5.2h-1v-2h1v-.3c0-.3,0-.6,0-1,0-.3.2-.6.3-.9.2-.2.4-.4.7-.5.4-.1.8-.2,1.3-.2.7,0,1.3,0,1.9.2l-.3,1.7c-.2,0-.5,0-.7,0-.2,0-.3,0-.5.1-.1.1-.2.3-.2.4,0,.2,0,.4,0,.6"/>
    <path class="cls-8" d="M157.8,86.3h5.3c.7,0,1.5.2,2,.7.5.5.7,1.1.7,1.7,0,.6-.2,1.1-.5,1.5-.3.3-.6.5-1,.7.6.1,1.1.4,1.5.9.3.5.5,1,.5,1.6,0,.5-.1,1-.3,1.4-.2.4-.5.7-.9,1-.3.2-.7.3-1.1.3-.4,0-.8,0-1.3,0h-4.9v-9.8ZM160.7,90.2h1.2c.3,0,.6,0,.9-.2.2-.2.3-.5.2-.7,0-.2,0-.5-.2-.7-.3-.2-.6-.3-.9-.2h-1.2v1.9ZM160.7,94.1h1.4c.4,0,.7,0,1-.3.2-.2.3-.5.3-.7,0-.3,0-.5-.3-.7-.3-.2-.7-.3-1-.3h-1.4v2Z"/>
    <rect class="cls-8" x="168.8" y="86.3" width="2.8" height="9.9"/>
    <path class="cls-8" d="M174.2,92.9l2.7-.2c0,.4.1.8.3,1.1.3.4.7.6,1.2.6.3,0,.7,0,.9-.3.2-.2.3-.5.3-.7,0-.3-.1-.5-.3-.7-.4-.3-.9-.5-1.5-.6-1-.2-1.9-.6-2.6-1.2-.5-.5-.8-1.2-.8-1.9,0-.5.1-1,.4-1.5.3-.5.7-.8,1.2-1.1.7-.3,1.5-.4,2.2-.4.9,0,1.9.2,2.7.7.7.6,1.1,1.4,1.1,2.2l-2.7.2c0-.4-.2-.7-.4-1-.3-.2-.6-.3-.9-.3-.3,0-.5,0-.7.2-.2.1-.3.3-.3.6,0,.2,0,.3.2.4.3.2.5.3.8.4.9.2,1.8.5,2.7.9.5.3.9.6,1.2,1.1.2.5.4,1,.4,1.5,0,.6-.2,1.2-.5,1.8-.3.5-.8,1-1.4,1.2-.7.3-1.4.4-2.2.4-1.2.1-2.3-.2-3.2-1-.6-.7-1-1.6-1-2.5"/>
    <polygon class="cls-8" points="184.9 86.3 187.7 86.3 187.7 89.8 190.8 89.8 190.8 86.3 193.6 86.3 193.6 96.2 190.8 96.2 190.8 92.2 187.7 92.2 187.7 96.2 184.9 96.2 184.9 86.3"/>
    <path class="cls-8" d="M202.1,94.6h-3.2l-.4,1.6h-2.9l3.4-9.8h3.1l3.4,9.8h-3l-.4-1.6ZM201.5,92.4l-1-3.6-1,3.6h2Z"/>
  </g>
</svg>