<?xml version="1.0" encoding="utf-8"?>
<!-- Generator: Adobe Illustrator 19.1.0, SVG Export Plug-In . SVG Version: 6.00 Build 0)  -->
<svg version="1.1" id="Layer_1" xmlns="http://www.w3.org/2000/svg" xmlns:xlink="http://www.w3.org/1999/xlink" x="0px" y="0px"
	 viewBox="0 0 1920 380" style="enable-background:new 0 0 1920 380;" xml:space="preserve">
<style type="text/css">
	.st0{opacity:0.5;}
	.st1{fill:#FFFFFF;}
	.st2{opacity:0.69;}
</style>
<g class="st0">
	<g>
		<g>
			<polygon class="st1" points="475.1,378.2 439.3,366.5 431.9,378.2 430.9,378.2 438.9,365.5 478.1,378.2 			"/>
		</g>
		<g>
			<polygon class="st1" points="598,378.2 585.3,359.3 584.1,378.2 583.2,378.2 584.5,356.6 599,378.2 			"/>
		</g>
		<g>
			<polygon class="st1" points="409.1,378.2 393.4,354.5 376.9,378.2 375.8,378.2 393.5,352.8 410.1,378.2 			"/>
		</g>
		<g>
			<polygon class="st1" points="583.2,378.2 584.4,358.8 554.1,378.2 552.4,378.2 585.4,357.1 584.1,378.2 			"/>
		</g>
		<g>
			<polygon class="st1" points="430.9,378.2 438.4,366.3 394.5,354.4 410.1,378.2 409.1,378.2 392.4,352.9 439.8,365.7 431.9,378.2 
							"/>
		</g>
		<g>
			<polygon class="st1" points="512.2,378.2 449.7,307.7 439.6,365.7 478.1,378.2 475.1,378.2 439,366.4 438.6,366.3 449.1,305.7 
				513.4,378.2 			"/>
		</g>
		<g>
			<polygon class="st1" points="552.4,378.2 584.3,357.8 530.6,252.5 528.2,378.2 527.3,378.2 529.7,250.7 530.6,250.5 585.5,358.1 
				554.1,378.2 			"/>
		</g>
		<g>
			<path class="st1" d="M407.8,320.8l32.4,45.9L392.8,354L407.8,320.8z M408,322.6l-13.9,30.7l43.9,11.9L408,322.6z"/>
		</g>
		<g>
			<path class="st1" d="M407.2,321.5L450,306l-10.6,61.2L407.2,321.5z M408.6,322l30.2,42.9l10-57.4L408.6,322z"/>
		</g>
		<g>
			<path class="st1" d="M400.1,285.3l50.5,21.4l-43.1,15.6L400.1,285.3z M401.4,286.8l6.9,34.3l39.9-14.5L401.4,286.8z"/>
		</g>
		<g>
			<path class="st1" d="M469.9,262.7l-20.3,44.6L399.5,286L469.9,262.7z M468.2,264.2L402,286.1l47.1,20L468.2,264.2z"/>
		</g>
		<g>
			<path class="st1" d="M354.3,315.4l0.3-0.1l40.2,39.1l-92.6-14.9L354.3,315.4z M354.4,316.4L305.3,339l86.8,14L354.4,316.4z"/>
		</g>
		<g>
			<path class="st1" d="M370.3,25.1l47.4,161.1l-106.8-26.4L370.3,25.1z M370.1,27.8l-57.9,131.5L416.4,185L370.1,27.8z"/>
		</g>
		<g>
			<polygon class="st1" points="317.1,378.2 303.5,340 255.6,378.2 254.1,378.2 304,338.5 318,378.2 			"/>
		</g>
		<g>
			<polygon class="st1" points="375.8,378.2 392.7,354 304.4,339.8 318,378.2 317.1,378.2 303.1,338.7 394.2,353.3 376.9,378.2 			
				"/>
		</g>
		<g>
			<path class="st1" d="M417.7,184.6l-16.6,102.2L337.4,243L417.7,184.6z M416.4,186.6L339,243l61.4,42.3L416.4,186.6z"/>
		</g>
		<g>
			<polygon class="st1" points="254.1,378.2 303,339.3 239.4,292.3 252.3,378.2 251.4,378.2 238.1,290.3 304.5,339.2 255.6,378.2 
							"/>
		</g>
		<g>
			<path class="st1" d="M339,242.1L304,340l-66.1-48.7L339,242.1z M337.4,243.9l-97.8,47.5l63.9,47.1L337.4,243.9z"/>
		</g>
		<g>
			<path class="st1" d="M310.9,158.9l107.2,26.5l-79.6,58l-0.5,0.4L310.9,158.9z M312.3,160.2l26.2,82.1l77.5-56.5L312.3,160.2z"/>
		</g>
		<g>
			<path class="st1" d="M311.9,159l27.1,84.8l-130.2-49.6L311.9,159z M311.3,160.2l-99.9,34.1l126.1,48.1L311.3,160.2z"/>
		</g>
		<g>
			<polygon class="st1" points="130.9,1.4 121.9,21.3 168,1.4 170.3,1.4 120.1,23.1 129.9,1.4 			"/>
		</g>
		<g>
			<polygon class="st1" points="170.3,1.4 121.7,22.4 216,133.7 184.4,1.4 185.4,1.4 217.3,135.3 216.6,135.7 120.6,22.5 120.2,22 
				168,1.4 			"/>
		</g>
		<g>
			<polygon class="st1" points="185.4,1.4 217.1,134.4 294.6,29.3 202.2,1.4 205.4,1.4 296.1,28.8 216.7,136.5 184.4,1.4 			"/>
		</g>
		<g>
			<polygon class="st1" points="0.6,201.3 121.5,328.7 102.6,100.9 0.6,169.6 0.6,168.5 102.8,99.8 103.4,99.3 122.6,331.2 
				0.6,202.6 			"/>
		</g>
		<g>
			<polygon class="st1" points="205.3,1.4 294,28.2 270.9,1.4 272.1,1.4 296.7,29.9 202.2,1.4 			"/>
		</g>
		<g>
			<polygon class="st1" points="31.4,1.4 50.2,18 54.9,1.4 55.8,1.4 50.9,19 50.7,19.7 30,1.4 			"/>
		</g>
		<g>
			<polygon class="st1" points="0.6,168.5 101.8,100.4 0.6,82.2 0.6,81.3 103.1,99.7 104.2,99.9 0.6,169.6 			"/>
		</g>
		<g>
			<polygon class="st1" points="0.6,81.3 102.1,99.5 50.3,19.4 0.6,41.1 0.6,40.1 50.6,18.3 103.4,99.9 104,100.8 0.6,82.2 			"/>
		</g>
		<g>
			<path class="st1" d="M579.4,353.9c-5.4,7.3,5.6,15.4,11,8.1C595.8,354.7,584.8,346.6,579.4,353.9z"/>
			<path class="st1" d="M527,248.4c-3.1,4.2,3.2,8.8,6.3,4.6C536.4,248.9,530.1,244.2,527,248.4z"/>
			<path class="st1" d="M433.2,361.7c-5.8,7.8,6,16.5,11.8,8.7C450.8,362.5,439,353.8,433.2,361.7z"/>
			<path class="st1" d="M443.4,302.3c-5.9,8,6.1,16.8,12,8.8C461.2,303.1,449.3,294.3,443.4,302.3z"/>
			<path class="st1" d="M463.7,259.5c-5.3,7.2,5.5,15.2,10.8,8C479.8,260.2,469,252.3,463.7,259.5z"/>
			<path class="st1" d="M389.4,350.7c-4,5.4,4.1,11.4,8.1,6C401.5,351.2,393.4,345.3,389.4,350.7z"/>
			<path class="st1" d="M402.8,318c-5,6.8,5.1,14.2,10.1,7.5C417.9,318.7,407.8,311.2,402.8,318z"/>
			<path class="st1" d="M396.6,283c-4.1,5.5,4.2,11.6,8.3,6.1C409,283.6,400.7,277.5,396.6,283z"/>
			<path class="st1" d="M350.6,313c-3.8,5.1,3.9,10.7,7.6,5.6S354.4,307.9,350.6,313z"/>
			<path class="st1" d="M490.5,102.9c-5.6,7.6,5.8,16,11.4,8.4C507.5,103.7,496.1,95.4,490.5,102.9z"/>
			<path class="st1" d="M411.2,181.3c-5.7,7.8,5.9,16.3,11.6,8.6C428.6,182.1,417,173.6,411.2,181.3z"/>
			<path class="st1" d="M299.3,336c-4.4,5.9,4.5,12.4,8.8,6.5C312.5,336.6,303.7,330.1,299.3,336z"/>
			<path class="st1" d="M242.4,378.2c0.3-1.2,0.9-2.5,1.8-3.8c5.8-7.9,16.2-3.4,17.8,3.8H242.4z"/>
			<path class="st1" d="M330,237c-8,10.9,8.3,22.9,16.3,12C354.4,238.2,338.1,226.1,330,237z"/>
			<path class="st1" d="M232.6,286.8c-6.1,8.2,6.3,17.3,12.3,9.1C250.9,287.7,238.6,278.6,232.6,286.8z"/>
			<path class="st1" d="M409.6,28.1c-7.1,9.6,7.3,20.2,14.4,10.6C431,29.1,416.7,18.5,409.6,28.1z"/>
			<path class="st1" d="M306,155.4c-5.5,7.5,5.7,15.7,11.2,8.2C322.7,156.2,311.5,148,306,155.4z"/>
			<path class="st1" d="M361.9,20.3c-8.2,11.1,8.5,23.4,16.7,12.3C386.8,21.5,370.1,9.2,361.9,20.3z"/>
			<path class="st1" d="M112.7,323.1c-9.2,12.5,9.5,26.3,18.7,13.8C140.6,324.4,121.9,310.6,112.7,323.1z"/>
			<path class="st1" d="M204.1,189.8c-5.9,7.9,6.1,16.7,11.9,8.8C221.9,190.6,209.9,181.8,204.1,189.8z"/>
			<path class="st1" d="M289.6,24.8c-5.7,7.7,5.9,16.2,11.5,8.5C306.8,25.6,295.2,17.1,289.6,24.8z"/>
			<path class="st1" d="M211.8,131.6c-5,6.8,5.2,14.4,10.3,7.6C227.1,132.3,216.8,124.8,211.8,131.6z"/>
			<path class="st1" d="M189.2,1.4c-3.5,3.5-8.4,2.8-11.5,0H189.2z"/>
			<path class="st1" d="M94.8,94.1c-8,10.9,8.3,23,16.4,12.1C119.3,95.3,102.9,83.2,94.8,94.1z"/>
			<path class="st1" d="M115.7,18.3c-5.2,7.1,5.4,14.9,10.6,7.8C131.6,19,120.9,11.2,115.7,18.3z"/>
			<path class="st1" d="M46,15.5c-4.4,6,4.6,12.7,9,6.6C59.4,16.2,50.4,9.5,46,15.5z"/>
		</g>
	</g>
	<g class="st2">
		<g>
			<path class="st1" d="M483.4,128.9l91.8-16.3l0.3,0.9l-94.9,50.9L483.4,128.9z M484.2,129.6l-2.6,33.1l90.9-48.7L484.2,129.6z"/>
		</g>
		<g>
			<path class="st1" d="M658.4,165l0-1l87.1,70.6l-80.9,75.1l-0.7,0.7L658.4,165z M659.3,166l5.4,142.5l79.4-73.8L659.3,166z"/>
		</g>
		<g>
			<path class="st1" d="M658.5,165.4L607.9,52.6l275.6,147.7l-0.3,0.9L658.5,165.4z M659.1,164.6l221.6,35.2L609.8,54.6L659.1,164.6
				z"/>
		</g>
		<g>
			<polygon class="st1" points="703.2,378.2 705.3,375.7 669.7,378.2 656.8,378.2 707.3,374.6 704.4,378.2 			"/>
		</g>
		<g>
			<path class="st1" d="M588.3,254.1l-0.4-0.3l71.3-90l5.5,146.6L588.3,254.1z M589.3,253.6l74.5,54.9l-5.3-142.3L589.3,253.6z"/>
		</g>
		<g>
			<path class="st1" d="M437.3,139l44.4,24.3l-56.9,75.3L437.3,139z M438.1,140.5l-11.9,94.9l54.2-71.7L438.1,140.5z"/>
		</g>
		<g>
			<path class="st1" d="M574.6,113.2l34.3-60.6l50.9,113.6L574.6,113.2z M575.8,112.9l82,51l-49-109.2L575.8,112.9z"/>
		</g>
		<g>
			<path class="st1" d="M436.4,139.6l47.8-10.9l-2.8,35.6L436.4,139.6z M439,139.9l41.7,22.8l2.6-33L439,139.9z"/>
		</g>
		<g>
			<path class="st1" d="M464.5,71.3l112.4,41.9l-93.1,16.5l-0.4,0.1L464.5,71.3z M465.9,72.8l18.2,56l89.4-15.9L465.9,72.8z"/>
		</g>
		<g>
			<polygon class="st1" points="519.5,1.4 575.2,112.1 608.3,53.7 533.7,1.4 535.3,1.4 609.5,53.5 575.2,114 518.5,1.4 			"/>
		</g>
		<g>
			<path class="st1" d="M435.1,104l50.1,25.4l-47.8,10.9L435.1,104z M436.1,105.5l2.1,33.7l44.3-10.1L436.1,105.5z"/>
		</g>
		<g>
			<path class="st1" d="M434.8,104.9l30.6-33.8l19.1,59L434.8,104.9z M436.3,104.6l46.7,23.7l-18-55.4L436.3,104.6z"/>
		</g>
		<g>
			<path class="st1" d="M411.7,76.2l54.6-4.8l-30.8,34L411.7,76.2z M413.5,77l22.1,27.1l28.5-31.5L413.5,77z"/>
		</g>
		<g>
			<path class="st1" d="M462.9,23.5l2.8,48.9l-54.2,4.8L462.9,23.5z M462.1,25.6l-48.3,50.4l51-4.5L462.1,25.6z"/>
		</g>
		<g>
			<polygon class="st1" points="456.4,378.2 405.4,301.3 430.3,378.2 429.4,378.2 403.5,298.4 404.3,298 457.5,378.2 			"/>
		</g>
		<g>
			<path class="st1" d="M385.2,124.4l0.2-0.3l53.8,15.6l-88.8,30.3L385.2,124.4z M385.8,125.2L353,168.2l83.2-28.4L385.8,125.2z"/>
		</g>
		<g>
			<polygon class="st1" points="274.9,1.4 275.3,6.1 294.1,1.4 297.9,1.4 274.4,7.3 274,1.4 			"/>
		</g>
		<g>
			<path class="st1" d="M351.5,168.4l75.2,69.2l-101.5-7.5l-0.6-0.1L351.5,168.4z M351.9,169.9L326,229.2l98.3,7.2L351.9,169.9z"/>
		</g>
		<g>
			<path class="st1" d="M350.8,169l87.4-29.9L425.9,238L350.8,169z M352.6,169.3l72.6,66.8l12-95.7L352.6,169.3z"/>
		</g>
		<g>
			<polygon class="st1" points="370.3,1.4 338,67.6 412,76.1 386.8,1.4 387.8,1.4 413.3,77.1 336.6,68.3 369.3,1.4 			"/>
		</g>
		<g>
			<path class="st1" d="M324,229.1l101.6,7.5l0.6,0l-22,62.4L324,229.1z M326.6,230.2l77.1,67.3l21.2-60L326.6,230.2z"/>
		</g>
		<g>
			<path class="st1" d="M270.9,156.8l81.5,12l-27,61.8L270.9,156.8z M272.9,158l52.3,70.8l25.9-59.2L272.9,158z"/>
		</g>
		<g>
			<path class="st1" d="M337.6,66.8l14.6,102.9l-81.1-12L337.6,66.8z M337,69.1L272.7,157l78.5,11.6L337,69.1z"/>
		</g>
		<g>
			<polygon class="st1" points="297.9,1.4 275.7,7 337.2,67.2 369.3,1.4 370.3,1.4 337.7,68.2 337.4,68.7 273.9,6.5 294.1,1.4 			
				"/>
		</g>
		<g>
			<path class="st1" d="M274.8,6.1l63.5,62.2L200.1,85.6L274.8,6.1z M274.9,7.4l-72.4,77l133.9-16.8L274.9,7.4z"/>
		</g>
		<g>
			<polygon class="st1" points="110,1.4 178.3,28.7 154.3,1.4 155.5,1.4 180.2,29.5 179.7,30.3 107.5,1.4 			"/>
		</g>
		<g>
			<polygon class="st1" points="155.5,1.4 179.6,28.8 183.7,1.4 184.6,1.4 180.2,30.9 154.3,1.4 			"/>
		</g>
		<g>
			<polygon class="st1" points="0.6,183.3 185.7,245.5 62.9,53.1 0.6,169.3 0.6,167.4 62.4,51.9 62.8,51.3 187.9,247.2 0.6,184.3 
							"/>
		</g>
		<g>
			<polygon class="st1" points="0.6,167.4 61.9,52.9 0.6,72.6 0.6,71.7 62.7,51.7 63.8,51.4 0.6,169.3 			"/>
		</g>
		<g>
			<polygon class="st1" points="0.6,71.7 61.7,52 0.6,17.9 0.6,16.9 63.1,51.8 64,52.3 0.6,72.6 			"/>
		</g>
		<g>
			<path class="st1" d="M869.9,364.6c-1.7,11.1,15,13.6,16.6,2.5C888.2,356,871.6,353.5,869.9,364.6z"/>
			<path class="st1" d="M876.8,199.7c-1.3,8.8,11.8,10.7,13.2,2C891.2,192.9,878.1,190.9,876.8,199.7z"/>
			<path class="st1" d="M737.8,233.7c-1.4,9.2,12.4,11.3,13.8,2C753,226.5,739.2,224.4,737.8,233.7z"/>
			<path class="st1" d="M714.4,378.2H698c-0.4-1.2-0.6-2.7-0.3-4.3c1.7-11.5,18.9-8.9,17.2,2.5C714.8,377,714.6,377.6,714.4,378.2z"
				/>
			<path class="st1" d="M656.7,308.4c-1.5,10.1,13.6,12.4,15.1,2.2C673.4,300.5,658.2,298.2,656.7,308.4z"/>
			<path class="st1" d="M647.5,163.3c-2.3,15.1,20.3,18.5,22.6,3.4C672.4,151.6,649.8,148.2,647.5,163.3z"/>
			<path class="st1" d="M572.3,378.2c4-6.8,14.3-6.2,18.2,0H572.3z"/>
			<path class="st1" d="M582,252.7c-1.3,8.8,11.9,10.8,13.2,2C596.5,245.9,583.3,243.9,582,252.7z"/>
			<path class="st1" d="M602.1,52.6c-1.4,9,12.1,11,13.5,2C617,45.6,603.5,43.6,602.1,52.6z"/>
			<path class="st1" d="M568.4,112c-1.4,9.2,12.3,11.2,13.7,2C583.4,104.9,569.7,102.9,568.4,112z"/>
			<path class="st1" d="M526.4,207.4c-1,6.4,8.6,7.8,9.6,1.4C537,202.4,527.4,201,526.4,207.4z"/>
			<path class="st1" d="M470.5,162c-2.1,14.1,19,17.2,21.1,3.1C493.8,151,472.7,147.8,470.5,162z"/>
			<path class="st1" d="M476.6,128.2c-1.5,9.6,13,11.8,14.5,2.1C492.5,120.7,478,118.5,476.6,128.2z"/>
			<path class="st1" d="M457.9,70.9c-1.5,9.8,13.2,12,14.7,2.2C474,63.3,459.4,61.1,457.9,70.9z"/>
			<path class="st1" d="M455.8,23.6c-1.3,8.9,12,10.9,13.3,2S457.2,14.7,455.8,23.6z"/>
			<path class="st1" d="M417.5,235.9c-1.6,10.7,14.4,13,16,2.4C435.1,227.5,419.1,225.2,417.5,235.9z"/>
			<path class="st1" d="M432.7,139c-1,6.7,9,8.1,10,1.5C443.7,133.8,433.7,132.4,432.7,139z"/>
			<path class="st1" d="M429.3,103.9c-1.3,8.3,11.2,10.2,12.4,1.8C443,97.4,430.6,95.5,429.3,103.9z"/>
			<path class="st1" d="M398.4,297.4c-1.1,7.4,10,9.1,11.1,1.6C410.6,291.6,399.5,290,398.4,297.4z"/>
			<path class="st1" d="M407.5,75.9c-1,6.8,9.1,8.3,10.2,1.5C418.7,70.6,408.6,69.1,407.5,75.9z"/>
			<path class="st1" d="M380.9,123.9c-0.9,6.3,8.4,7.7,9.4,1.4C391.2,119.1,381.9,117.7,380.9,123.9z"/>
			<path class="st1" d="M346.3,168.4c-1.1,7.3,9.8,8.9,10.9,1.6C358.2,162.7,347.4,161.1,346.3,168.4z"/>
			<path class="st1" d="M315.5,228.2c-2,13.1,17.6,16,19.6,2.9C337.1,218,317.5,215.1,315.5,228.2z"/>
			<path class="st1" d="M327.3,66.5c-2,13.4,18,16.4,20,3C349.3,56,329.3,53.1,327.3,66.5z"/>
			<path class="st1" d="M264.4,156.2c-1.5,10.1,13.6,12.3,15.1,2.2C281,148.4,265.9,146.2,264.4,156.2z"/>
			<path class="st1" d="M270.2,1.4h9.2c1.7,1.3,2.7,3.5,2.2,6.3c-1.4,9.2-15.1,7.1-13.7-2C268.3,3.8,269.1,2.4,270.2,1.4z"/>
			<path class="st1" d="M175.3,244.6c-2.3,15.4,20.7,18.8,23,3.4C200.6,232.7,177.6,229.3,175.3,244.6z"/>
			<path class="st1" d="M193.9,83.9c-1.5,9.8,13.2,12,14.6,2.2C210,76.3,195.4,74.1,193.9,83.9z"/>
			<path class="st1" d="M173.6,28.9c-1.3,8.4,11.3,10.3,12.6,1.9C187.5,22.4,174.9,20.5,173.6,28.9z"/>
			<path class="st1" d="M52.8,50.7c-2,13.4,18.1,16.4,20.1,3C74.9,40.2,54.8,37.3,52.8,50.7z"/>
			<path class="st1" d="M0.6,176.8c1,1.5,1.5,3.5,1.1,5.8c-0.2,1.3-0.6,2.4-1.1,3.3V176.8z"/>
		</g>
	</g>
	<g>
		<g>
			<polygon class="st1" points="273.8,378.2 281.8,339.8 212.6,278.3 266.7,378.2 265.6,378.2 210.5,276.4 211.2,275.9 282.5,339.3 
				282.7,339.5 274.7,378.2 			"/>
		</g>
		<g>
			<polygon class="st1" points="337.9,378.2 337.1,334.3 285.5,378.2 284,378.2 338,332.3 338.8,378.2 			"/>
		</g>
		<g>
			<polygon class="st1" points="93.6,378.2 33.5,292.5 7,376.3 20.6,378.2 13.8,378.2 6.4,377.1 5.9,377.1 33.2,290.4 94.7,378.2 
							"/>
		</g>
		<g>
			<polygon class="st1" points="112.6,378.2 209.8,276.8 34.2,291.8 94.7,378.2 93.6,378.2 32.5,291.1 210.9,275.8 212.1,275.7 
				113.9,378.2 			"/>
		</g>
		<g>
			<polygon class="st1" points="0.6,231.2 33.1,290.1 49.2,196.6 0.6,231.2 0.6,230.1 50.5,194.6 33.6,292.8 0.6,233.1 			"/>
		</g>
		<g>
			<path class="st1" d="M33.4,291.9l-0.6,0.1l16.7-97l163.1,81.6L33.4,291.9z M33.9,291l175.4-15L50.2,196.3L33.9,291z"/>
		</g>
		<g>
			<polygon class="st1" points="5.4,378.2 5.9,377 0.6,374.9 0.6,373.9 6.6,376.3 7,376.4 6.4,378.2 			"/>
		</g>
		<g>
			<polygon class="st1" points="0.6,373.9 3.7,375.1 0.6,372.7 0.6,371.6 6.7,376.3 6.3,377.1 0.6,374.9 			"/>
		</g>
		<g>
			<path class="st1" d="M331.3,337.7c5.9,8.3,18.3-0.5,12.5-8.9C337.9,320.5,325.5,329.4,331.3,337.7z"/>
			<path class="st1" d="M278,342.7c4,5.7,12.5-0.4,8.5-6.1C282.5,330.9,274,336.9,278,342.7z"/>
			<path class="st1" d="M207.4,278.7c3.3,4.7,10.3-0.3,7-5C211.2,269.1,204.2,274,207.4,278.7z"/>
			<path class="st1" d="M44.1,199.7c5.4,7.7,17-0.5,11.5-8.2C50.2,183.8,38.7,192,44.1,199.7z"/>
			<path class="st1" d="M0.6,220.7c2.8,0.1,5.5,1.4,7.7,4.4c5.3,7.6-0.8,15.5-7.7,16.2V220.7z"/>
			<path class="st1" d="M26.7,296.2c6.2,8.9,19.5-0.6,13.3-9.4S20.5,287.3,26.7,296.2z"/>
			<path class="st1" d="M0.6,378.2v-3.7c1.7-4,7.5-6,10.8-1.3c1.2,1.7,1.4,3.5,1,5H0.6z"/>
		</g>
	</g>
	<g>
		<g>
			<path class="st1" d="M236,24.2l0.3-0.4l51.2,23.1l0.1,0.1l3,30.4L236,24.2z M237.4,24.9l52.4,51l-2.8-28.7L237.4,24.9z"/>
		</g>
		<g>
			<path class="st1" d="M390.2,175.9l-0.2-0.1l3.8-65.6l51.1,87.6L390.2,175.9z M390.6,175.5l53.1,21.3l-49.4-84.7L390.6,175.5z"/>
		</g>
		<g>
			<path class="st1" d="M289.7,76.9l27.7-43.7L333,80.5L289.7,76.9z M290.6,76.4l41.6,3.5l-15-45.5L290.6,76.4z"/>
		</g>
		<g>
			<path class="st1" d="M326.6,112.3l-0.2-0.5l19.9-12l0.1-0.1l20.2,4.6l0,0.5L326.6,112.3z M328,111.5l37.2-6.9l-18.7-4.2
				L328,111.5z"/>
		</g>
		<g>
			<path class="st1" d="M289.5,76.3L333,80l-6.2,32.5L289.5,76.3z M290.9,77l35.5,34.5l5.9-31L290.9,77z"/>
		</g>
		<g>
			<path class="st1" d="M326.2,112.5l6.3-33l14.4,20.6L326.2,112.5z M327,111.5l19.2-11.5l-13.4-19.1L327,111.5z"/>
		</g>
		<g>
			<path class="st1" d="M486.7,310.5l-47.3-32.9l-0.1-0.1l3.8-19.8l44.1,52.4L486.7,310.5z M439.8,277.3l45.5,31.6l-42-50
				L439.8,277.3z"/>
		</g>
		<g>
			<path class="st1" d="M300.3,270.6l-16.5-22.1l78.4-21.9l0.2,0.5L300.3,270.6z M300.4,269.9l60.4-42.3l-76.1,21.3L300.4,269.9z"/>
		</g>
		<g>
			<path class="st1" d="M349.3,172l45-61.7l-3.8,65.4l0,0.3L349.3,172z M350.3,171.6l39.7,3.8l3.7-63.3L350.3,171.6z"/>
		</g>
		<g>
			<path class="st1" d="M300.4,270.5l-0.9,0l62.6-43.9l0.2-0.1l38.4,38.9L300.4,270.5z M301.3,270l98.1-5l-37.2-37.7L301.3,270z"/>
		</g>
		<g>
			<path class="st1" d="M138.8,116.8l-0.3,0.1l0.2-53.5l56.8,43.8L138.8,116.8z M139,116.2l55.2-9.4l-54.9-42.4L139,116.2z"/>
		</g>
		<g>
			<path class="st1" d="M400,265.4l0-0.5l43.5-6.9l-3.8,19.7L400,265.4z M401.2,265.3l38.1,11.8l3.5-18.4L401.2,265.3z"/>
		</g>
		<g>
			<path class="st1" d="M138.5,63.8l97.6-40l0.7-0.3L195,107.4L138.5,63.8z M139.5,63.9l55.2,42.6l40.8-82L139.5,63.9z"/>
		</g>
		<g>
			<polygon class="st1" points="475.6,378.2 486.5,311 440.9,354.7 473.6,378.2 472.7,378.2 440.4,354.9 440.1,354.7 487.3,309.6 
				476.1,378.2 			"/>
		</g>
		<g>
			<path class="st1" d="M218.1,167l-0.2,0l-7.8-19.2l103.7,14.1l0,0.5L218.1,167z M218.3,166.5l92.5-4.4L211,148.5L218.3,166.5z"/>
		</g>
		<g>
			<path class="st1" d="M109.3,35.8l22.3-29.4l7.7,58.2L109.3,35.8z M110.1,35.8l28.6,27.4l-7.3-55.4L110.1,35.8z"/>
		</g>
		<g>
			<path class="st1" d="M139.1,64.1l-0.3,0.1l-7.6-57.5l105.9,17.1L139.1,64.1z M139.2,63.5l95.9-39.3L131.8,7.4L139.2,63.5z"/>
		</g>
		<g>
			<path class="st1" d="M234.1,299.7l66.6-29.8l-8.8,73.9l-0.1,0.5L234.1,299.7z M235.1,299.8l56.3,43.4l8.6-72.5L235.1,299.8z"/>
		</g>
		<g>
			<path class="st1" d="M218,167l0.1-0.5l96.2-4.6l-23.9,38.7l-0.1,0.2L218,167z M219.2,167l70.8,33.1l23.2-37.6L219.2,167z"/>
		</g>
		<g>
			<path class="st1" d="M440.2,355.3l-1-77.9l0-0.5l47.8,33.2l0.3,0.2L440.2,355.3z M440.8,354.1l45.7-43.7L439.8,278L440.8,354.1z"
				/>
		</g>
		<g>
			<path class="st1" d="M440.3,354.8l-40.5-89.5l-0.2-0.5l40.1,12.4l0.2,0.1l1,77.5L440.3,354.8z M400.5,265.6l39.7,87.8l-1-75.8
				L400.5,265.6z"/>
		</g>
		<g>
			<path class="st1" d="M58,111l-0.5-0.5l81.3,5.8l0.3,0l-5,71.1l0,0.6L58,111z M58.9,111.1l74.7,75.6l4.9-70L58.9,111.1z"/>
		</g>
		<g>
			<path class="st1" d="M284.3,249l-0.4,0.1l6-48.6l0-0.3l72.4,26.6l0.8,0.3L284.3,249z M284.5,248.3l76.8-21.5l-71-26.1
				L284.5,248.3z"/>
		</g>
		<g>
			<path class="st1" d="M149.7,158.7l45.2-52.2l15.8,41.7l0.1,0.3L149.7,158.7z M151.1,157.9l59-9.9l-15.4-40.5L151.1,157.9z"/>
		</g>
		<g>
			<path class="st1" d="M57.5,111l20.9-17.7l60.5,22.9l-0.1,0.5L57.5,111z M58.8,110.6l78.1,5.5L78.5,94L58.8,110.6z"/>
		</g>
		<g>
			<path class="st1" d="M318.8,339.2l-0.3,0.3L300,270l100.7-5.2L318.8,339.2z M318.8,338.5l80.5-73l-98.6,5L318.8,338.5z"/>
		</g>
		<g>
			<path class="st1" d="M133.7,187.6l-0.3-0.1l17-29.7l30.9,51.8L133.7,187.6z M134.2,187.2l45.8,21.1l-29.6-49.5L134.2,187.2z"/>
		</g>
		<g>
			<polygon class="st1" points="439.7,378.2 440.2,355 340.6,377.6 341.3,378.2 340.5,378.2 339.5,377.3 440.4,354.4 440.8,354.4 
				440.2,378.2 			"/>
		</g>
		<g>
			<path class="st1" d="M339.9,377.6l-48.5-33.7l-0.5-0.4l27.9-4.8l21.5,38.6L339.9,377.6z M292.3,343.8l47,32.7l-20.8-37.2
				L292.3,343.8z"/>
		</g>
		<g>
			<path class="st1" d="M7,128.1l-0.2-0.3l51.8-17.4l-13.9,66.3l-0.1,0.6L7,128.1z M7.6,128.1L44.2,176l13.6-64.8L7.6,128.1z"/>
		</g>
		<g>
			<path class="st1" d="M340.2,377.7l-0.2,0l-21.5-38.6l-0.3-0.5l122.4,15.7l0,0.5L340.2,377.7z M340.2,377.1l98.7-22.4l-119.8-15.4
				L340.2,377.1z"/>
		</g>
		<g>
			<path class="st1" d="M6.7,128.4l31.6-68.2l20.1,50.5l0.1,0.3L6.7,128.4z M7.7,127.5l50.1-16.9L38.2,61.5L7.7,127.5z"/>
		</g>
		<g>
			<path class="st1" d="M133.4,186.9l47.4,21.8l0.3,0.1l-28.7,47.4l-0.3,0.5L133.4,186.9z M134.2,187.8l18,67.6l28.1-46.4
				L134.2,187.8z"/>
		</g>
		<g>
			<polygon class="st1" points="0.6,212 49.8,221.6 0.6,192.9 0.6,192.3 51.5,221.9 51.3,222.4 0.6,212.6 			"/>
		</g>
		<g>
			<path class="st1" d="M314.6,37.4c4.8,3.7,10.2-3.5,5.4-7.2C315.3,26.5,309.8,33.7,314.6,37.4z"/>
			<path class="st1" d="M360.2,74.9c3.6,2.8,7.7-2.7,4.1-5.4C360.7,66.6,356.6,72.1,360.2,74.9z"/>
			<path class="st1" d="M391.2,115c5.1,3.9,10.9-3.7,5.8-7.7C391.9,103.5,386.1,111.1,391.2,115z"/>
			<path class="st1" d="M364.1,107.8c4.2,3.3,9.1-3.1,4.9-6.4C364.8,98.1,359.9,104.5,364.1,107.8z"/>
			<path class="st1" d="M330,83.7c4.6,3.6,9.9-3.4,5.3-7C330.7,73.2,325.4,80.2,330,83.7z"/>
			<path class="st1" d="M285.4,49.6c3.3,2.5,7-2.4,3.7-4.9C285.9,42.1,282.2,47,285.4,49.6z"/>
			<path class="st1" d="M345.1,101.9c2.4,1.9,5.2-1.8,2.8-3.7C345.5,96.3,342.7,100,345.1,101.9z"/>
			<path class="st1" d="M234.6,26c2.7,2,5.7-2,3.1-4C235,20,232,24,234.6,26z"/>
			<path class="st1" d="M288.1,79.3c3.6,2.8,7.7-2.6,4.1-5.4C288.7,71.2,284.6,76.6,288.1,79.3z"/>
			<path class="st1" d="M441.1,201.6c5.7,4.3,12.1-4.2,6.5-8.5C441.9,188.7,435.4,197.3,441.1,201.6z"/>
			<path class="st1" d="M323.7,115.8c5,3.8,10.7-3.7,5.7-7.5C324.5,104.4,318.8,111.9,323.7,115.8z"/>
			<path class="st1" d="M387.8,179c4.4,3.4,9.4-3.2,5-6.6C388.4,169,383.4,175.6,387.8,179z"/>
			<path class="st1" d="M347.6,174.8c3.9,3,8.4-2.9,4.5-5.9C348.2,165.9,343.7,171.8,347.6,174.8z"/>
			<path class="st1" d="M129,10.4c4.4,3.4,9.4-3.3,5-6.6C129.6,0.4,124.6,7,129,10.4z"/>
			<path class="st1" d="M440.7,261.6c4.3,3.3,9.2-3.2,4.9-6.5C441.3,251.8,436.4,258.3,440.7,261.6z"/>
			<path class="st1" d="M311.8,164.7c3.3,2.6,7.1-2.5,3.8-5C312.3,157.1,308.5,162.2,311.8,164.7z"/>
			<path class="st1" d="M483.6,314.7c5.8,4.4,12.4-4.3,6.6-8.7C484.4,301.5,477.8,310.2,483.6,314.7z"/>
			<path class="st1" d="M436.8,281.1c4.8,3.7,10.4-3.6,5.5-7.3C437.5,270,431.9,277.4,436.8,281.1z"/>
			<path class="st1" d="M359.5,230.5c4.7,3.6,10.1-3.5,5.4-7.1C360.2,219.7,354.8,226.8,359.5,230.5z"/>
			<path class="st1" d="M106.1,40.6c6.3,4.9,13.5-4.7,7.2-9.5C107,26.2,99.8,35.7,106.1,40.6z"/>
			<path class="st1" d="M136.1,67.7c5.1,3.9,10.9-3.7,5.8-7.6C136.9,56.1,131,63.8,136.1,67.7z"/>
			<path class="st1" d="M191.2,111.8c6.5,5,13.9-4.8,7.4-9.7C192.1,97.1,184.7,106.8,191.2,111.8z"/>
			<path class="st1" d="M397.6,268.3c4.2,3.2,9-3.1,4.8-6.3C398.2,258.8,393.4,265.1,397.6,268.3z"/>
			<path class="st1" d="M287.5,203.9c4.6,3.5,9.8-3.4,5.2-6.9C288.2,193.5,282.9,200.4,287.5,203.9z"/>
			<path class="st1" d="M207.5,152.2c5.3,4.1,11.3-3.9,6-8C208.3,140.1,202.2,148.1,207.5,152.2z"/>
			<path class="st1" d="M216.2,169.3c3.4,2.6,7.3-2.5,3.9-5.1C216.7,161.6,212.8,166.7,216.2,169.3z"/>
			<path class="st1" d="M136.6,119.4c3.8,3,8.2-2.8,4.4-5.8C137.1,110.7,132.7,116.4,136.6,119.4z"/>
			<path class="st1" d="M472.3,378.2c1-1.8,3.4-2.9,5.5-1.2c0.5,0.4,0.8,0.8,1.1,1.2H472.3z"/>
			<path class="st1" d="M437.5,358.7c5.3,4.1,11.4-3.9,6.1-8C438.2,346.6,432.2,354.6,437.5,358.7z"/>
			<path class="st1" d="M226.1,208.5c5.4,4.2,11.6-4,6.2-8.1C226.9,196.3,220.8,204.4,226.1,208.5z"/>
			<path class="st1" d="M281.7,251.9c4.3,3.3,9.2-3.2,4.9-6.5C282.4,242.2,277.5,248.6,281.7,251.9z"/>
			<path class="st1" d="M35.2,64.9c5.4,4.2,11.6-4,6.2-8.2C36,52.6,29.8,60.8,35.2,64.9z"/>
			<path class="st1" d="M75.4,97.6c5.2,4.1,11.3-3.9,6-7.9C76.2,85.6,70.2,93.6,75.4,97.6z"/>
			<path class="st1" d="M297.8,273.6c4.5,3.4,9.6-3.3,5.1-6.7C298.5,263.5,293.3,270.2,297.8,273.6z"/>
			<path class="st1" d="M147.1,162.7c5.8,4.5,12.5-4.3,6.7-8.8C147.9,149.4,141.3,158.2,147.1,162.7z"/>
			<path class="st1" d="M55.6,114.1c4.4,3.4,9.5-3.3,5.1-6.7C56.3,104.1,51.2,110.7,55.6,114.1z"/>
			<path class="st1" d="M178.3,212.1c4.2,3.2,9-3.1,4.8-6.3C178.9,202.5,174.1,208.9,178.3,212.1z"/>
			<path class="st1" d="M131.9,189.8c3.3,2.5,7-2.4,3.7-4.9C132.4,182.4,128.7,187.3,131.9,189.8z"/>
			<path class="st1" d="M314.6,344.3c7,5.4,15.1-5.2,8-10.6C315.7,328.3,307.6,338.9,314.6,344.3z"/>
			<path class="st1" d="M206.3,263.2c4.5,3.5,9.7-3.3,5.2-6.8C207,253,201.8,259.8,206.3,263.2z"/>
			<path class="st1" d="M334.5,378.2c-0.5-4.3,4.5-8.6,8.9-5.1c1.9,1.5,2.5,3.4,2.2,5.1H334.5z"/>
			<path class="st1" d="M289.4,346.5c3.8,2.9,8.2-2.8,4.4-5.8C290,337.9,285.6,343.6,289.4,346.5z"/>
			<path class="st1" d="M232.8,302.2c3.3,2.5,7-2.4,3.7-4.9C233.2,294.7,229.5,299.7,232.8,302.2z"/>
			<path class="st1" d="M3.4,132.9c6.6,5.1,14.2-4.9,7.6-10C4.4,117.9-3.2,127.8,3.4,132.9z"/>
			<path class="st1" d="M148.7,260.5c5.8,4.5,12.5-4.3,6.7-8.8C149.6,247.2,142.9,256,148.7,260.5z"/>
			<path class="st1" d="M42.2,179.4c3.7,2.9,8-2.8,4.3-5.6C42.7,170.9,38.5,176.6,42.2,179.4z"/>
			<path class="st1" d="M253.3,351.3c3.7,2.9,8-2.7,4.3-5.6C253.8,342.9,249.6,348.5,253.3,351.3z"/>
			<path class="st1" d="M91.5,250.2c5.2,4,11.1-3.8,5.9-7.8C92.3,238.4,86.3,246.2,91.5,250.2z"/>
			<path class="st1" d="M48.8,225.4c4.4,3.4,9.4-3.2,5-6.6C49.5,215.4,44.5,222,48.8,225.4z"/>
		</g>
	</g>
</g>
</svg>
