<svg width="33" height="33" viewBox="0 0 33 33" fill="none" xmlns="http://www.w3.org/2000/svg">
<path d="M17.2 32.3C16.5 32.3 15.9 32.3 15.2 32.3C14.8 32.3 14.4 32.2 14 32.2C10.8 31.7 7.9 30.5 5.5 28.3C2.7 25.8 0.999988 22.7 0.299988 19C0.199988 18.4 0.1 17.8 0 17.2C0 16.5 0 15.9 0 15.2C0 15.1 6.10203e-06 15 0.100006 14.9C0.400006 11.3 1.70001 8.2 4.10001 5.5C6.60001 2.6 9.7 0.900012 13.5 0.200012C14.1 0.100012 14.7 0 15.2 0C15.9 0 16.5 0 17.2 0C17.3 0 17.4 6.10203e-06 17.4 0.100006C19.8 0.300006 22.1 1.00001 24.2 2.20001C28.5 4.80001 31.1 8.49999 32.1 13.4C32.2 14 32.3 14.6 32.3 15.2C32.3 15.9 32.3 16.5 32.3 17.2C32.2 17.8 32.2 18.4 32.1 18.9C30.9 25.6 25.7 30.9 19 32.1C18.4 32.2 17.8 32.2 17.2 32.3ZM16.2 1.20001C7.90001 1.20001 1.20001 7.90001 1.20001 16.2C1.20001 24.5 7.90001 31.2 16.2 31.2C24.5 31.2 31.2 24.5 31.2 16.2C31.2 7.90001 24.5 1.20001 16.2 1.20001Z" fill="#5DBB75"/>
<path d="M16.2 1.2002C24.5 1.2002 31.2 8.0002 31.2 16.2002C31.2 24.5002 24.5 31.2002 16.2 31.2002C7.90001 31.2002 1.20001 24.4002 1.20001 16.2002C1.20001 7.9002 7.90001 1.2002 16.2 1.2002ZM16.2 2.3002C8.60001 2.3002 2.39999 8.50019 2.29999 16.1002C2.29999 23.7002 8.50001 29.9002 16.1 30.0002C23.7 30.0002 29.9 23.8002 30 16.2002C30 8.5002 23.9 2.3002 16.2 2.3002Z" fill="white"/>
<path d="M16.2 2.30005C23.9 2.30005 30.1 8.50004 30 16.2C30 23.9 23.8 30.1 16.1 30C8.40004 30 2.20002 23.8 2.30002 16.1C2.40002 8.50004 8.50005 2.30005 16.2 2.30005ZM16.2 20.2C16.3 20.4 16.3 20.5 16.4 20.6C17.2 22.6 18 24.6 18.9 26.6C19.3 27.5 20.1 27.9 21 27.7C22 27.4 22.5 26.4 22.1 25.4C21.3 23.3 20.5 21.1 19.6 19C19.2 18 19.1 17.1 19.2 16.1C19.2 15.8 19.4 15.6 19.7 15.5C19.8 15.5 20 15.5 20.1 15.5C21.6 15.4 23.1 15.2 24.5 15.1C25 15.1 25.4 14.9 25.7 14.5C26.1 13.9 26.2 13.3 25.9 12.7C25.6 12 25 11.7 24.3 11.7C23.7 11.7 23 11.8 22.4 11.9C20.9 12 19.4 12.2 17.8 12.3C15.6 12.4 13.5 12.3 11.3 12C10.2 11.9 9.10003 11.8 7.90003 11.7C7.00003 11.7 6.20005 12.4 6.20005 13.3C6.10005 14.2 6.70004 15 7.60004 15.1C8.20004 15.2 8.80003 15.2 9.50003 15.3C10.6 15.4 11.6 15.5 12.7 15.6C13 15.6 13.2 15.8 13.2 16C13.2 16.8 13.3 17.7 13 18.5C12.1 20.8 11.2 23.1 10.3 25.4C9.90002 26.3 10.3 27.3 11.2 27.7C12.1 28.1 13.1 27.7 13.5 26.7C13.6 26.5 13.7 26.3 13.7 26.1C14.6 24.1 15.3 22.2 16.2 20.2ZM16.2 4.00003C14.3 4.00003 12.7 5.60003 12.7 7.50003C12.7 9.40003 14.3 10.9 16.2 11C18.1 11 19.7 9.40003 19.7 7.50003C19.6 5.60003 18.1 4.00003 16.2 4.00003Z" fill="#5DBB75" stroke="white" stroke-width="1.5562" stroke-miterlimit="10"/>
<path d="M16.2 20.2001C15.4 22.2001 14.6 24.1001 13.8 26.0001C13.7 26.2001 13.6 26.4001 13.6 26.6001C13.2 27.5001 12.2 28.0001 11.3 27.6001C10.4 27.2001 9.99999 26.3001 10.4 25.3001C11.3 23.0001 12.2 20.7001 13.1 18.4001C13.4 17.6001 13.3 16.7001 13.3 15.9001C13.3 15.6001 13 15.5001 12.8 15.5001C11.7 15.4001 10.7 15.3001 9.60001 15.2001C9.00001 15.1001 8.40001 15.1001 7.70001 15.0001C6.80001 14.9001 6.19999 14.1001 6.29999 13.2001C6.39999 12.3001 7.1 11.6001 8 11.6001C9.1 11.7001 10.2 11.8001 11.4 11.9001C13.6 12.1001 15.7 12.3001 17.9 12.2001C19.4 12.1001 20.9 11.9001 22.5 11.8001C23.1 11.7001 23.8 11.7001 24.4 11.6001C25.1 11.6001 25.7 11.9001 26 12.6001C26.3 13.3001 26.2 13.9001 25.8 14.4001C25.5 14.8001 25.1 15.0001 24.6 15.0001C23.1 15.1001 21.6 15.3001 20.2 15.4001C20.1 15.4001 19.9 15.4001 19.8 15.4001C19.5 15.5001 19.3 15.6001 19.3 16.0001C19.3 17.0001 19.3 18.0001 19.7 18.9001C20.6 21.0001 21.4 23.1001 22.2 25.3001C22.6 26.3001 22.1 27.3001 21.1 27.6001C20.2 27.9001 19.4 27.4001 19 26.5001C18.2 24.5001 17.4 22.5001 16.5 20.5001C16.3 20.5001 16.2 20.4001 16.2 20.2001ZM8 12.7001C7.6 12.7001 7.3 13.1001 7.5 13.5001C7.6 13.7001 7.8 13.8001 8 13.9001C8.6 14.0001 9.19999 14.0001 9.79999 14.1001C10.9 14.2001 12 14.3001 13 14.4001C13.7 14.5001 14.3 15.0001 14.4 15.7001C14.5 16.8001 14.6 17.8001 14.2 18.9001C13.5 20.5001 12.9 22.1001 12.3 23.8001C12 24.5001 11.8 25.1001 11.5 25.8001C11.4 26.2001 11.5 26.5001 11.8 26.6001C12.1 26.7001 12.4 26.6001 12.6 26.2001C12.6 26.1001 12.7 26.1001 12.7 26.0001C13.5 24.0001 14.3 22.0001 15.2 20.0001C15.3 19.8001 15.4 19.6001 15.5 19.5001C16.1 18.8001 17.1 19.0001 17.4 19.9001C18.2 21.9001 19.1 24.0001 19.9 26.0001C19.9 26.1001 20 26.2001 20 26.3001C20.1 26.5001 20.4 26.6001 20.7 26.6001C21 26.5001 21.1 26.3001 21.1 26.0001C21.1 25.9001 21 25.8001 21 25.7001C20.2 23.5001 19.3 21.3001 18.4 19.2001C18 18.1001 17.9 17.0001 18 15.9001C18.1 15.1001 18.6 14.5001 19.4 14.4001C20 14.3001 20.7 14.3001 21.3 14.2001C22.3 14.1001 23.4 14.0001 24.4 13.9001C24.8 13.9001 25 13.6001 25 13.3001C25 12.9001 24.7 12.8001 24.3 12.8001C24 12.8001 23.7 12.9001 23.5 12.9001C21.8 13.1001 20 13.3001 18.3 13.4001C16.2 13.5001 14.1 13.4001 12 13.2001C10.6 12.9001 9.3 12.8001 8 12.7001Z" fill="white"/>
<path d="M16.2 4C18.1 4 19.6 5.6 19.7 7.5C19.7 9.4 18.1 11 16.2 11C14.3 11 12.7 9.4 12.7 7.5C12.7 5.6 14.3 4 16.2 4ZM16.2 9.80002C17.5 9.80002 18.5 8.8 18.5 7.5C18.5 6.2 17.5 5.20001 16.2 5.20001C14.9 5.20001 13.9 6.2 13.9 7.5C13.9 8.8 14.9 9.80002 16.2 9.80002Z" fill="white"/>
<path d="M8 12.7001C9.3 12.8001 10.5 12.9001 11.8 13.0001C13.9 13.2001 16 13.3001 18.1 13.2001C19.8 13.1001 21.6 12.9001 23.3 12.7001C23.6 12.7001 23.9 12.6001 24.1 12.6001C24.5 12.6001 24.8 12.8001 24.8 13.1001C24.8 13.4001 24.6 13.7001 24.2 13.7001C23.2 13.8001 22.1 13.9001 21.1 14.0001C20.5 14.1001 19.8 14.1001 19.2 14.2001C18.4 14.3001 17.9 14.9001 17.8 15.7001C17.7 16.8001 17.7 17.9001 18.2 19.0001C19.1 21.2001 19.9 23.3001 20.8 25.5001C20.8 25.6001 20.9 25.7001 20.9 25.8001C20.9 26.1001 20.8 26.3001 20.5 26.4001C20.2 26.5001 20 26.4001 19.8 26.1001C19.7 26.0001 19.7 25.9001 19.7 25.8001C18.9 23.8001 18 21.7001 17.2 19.7001C16.8 18.8001 15.8 18.7001 15.3 19.3001C15.2 19.4001 15.1 19.6001 15 19.8001C14.2 21.8001 13.4 23.8001 12.5 25.8001C12.5 25.9001 12.4 25.9001 12.4 26.0001C12.2 26.4001 11.9 26.5001 11.6 26.4001C11.3 26.3001 11.2 26.0001 11.3 25.6001C11.6 24.9001 11.8 24.2001 12.1 23.6001C12.7 22.0001 13.4 20.4001 14 18.7001C14.4 17.7001 14.4 16.6001 14.2 15.5001C14.1 14.8001 13.5 14.3001 12.8 14.2001C11.7 14.1001 10.6 14.0001 9.60001 13.9001C9.00001 13.8001 8.39999 13.8001 7.79999 13.7001C7.59999 13.7001 7.39999 13.5001 7.29999 13.3001C7.29999 13.1001 7.6 12.7001 8 12.7001Z" fill="#5DBB75"/>
<path d="M16.2 9.8002C14.9 9.8002 13.9 8.80018 13.9 7.50018C13.9 6.20018 15 5.2002 16.2 5.2002C17.5 5.2002 18.5 6.30018 18.5 7.50018C18.5 8.80018 17.4 9.8002 16.2 9.8002Z" fill="#5DBB75"/>
</svg>
