<svg width="108" height="122" viewBox="0 0 108 122" fill="none" xmlns="http://www.w3.org/2000/svg">
<path d="M0 101.5C0 74.4 0 47.2 0 20.1C1 15.5 4 12.4 7.9 10C10.1 8.6 12.4 7.4 14.8 6.5C23.8 2.8 33.3 1.2 43 0.4C44.8 0.3 46.5 0.1 48.3 0C51.9 0 55.6 0 59.2 0C61.7 0.2 64.2 0.4 66.7 0.6C75.5 1.4 84.1 3 92.3 6.3C96.6 8 100.6 10.1 103.9 13.5C106.3 16 107.5 18.8 107.5 22.4C107.5 48.1 107.5 73.8 107.5 99.5C107.5 100.2 107.5 101 107.4 101.7C106.8 105.3 104.6 107.9 101.9 110.1C98.5 112.8 94.7 114.6 90.7 116.1C82.3 119.2 73.5 120.6 64.6 121.3C62.8 121.4 61.1 121.6 59.3 121.7C55.7 121.7 52 121.7 48.4 121.7C48.1 121.6 47.7 121.6 47.4 121.5C42.1 120.9 36.7 120.5 31.4 119.7C24.6 118.6 17.9 116.8 11.7 113.7C6.3 111 1.5 107.8 0 101.5ZM53.7 4.7C46.5 4.7 39.3 5.2 32.2 6.5C25.5 7.7 19 9.4 12.9 12.5C10.2 13.9 7.7 15.5 5.9 18.1C4.4 20.3 4.3 22.6 5.9 24.7C6.9 26.1 8.2 27.3 9.6 28.3C14 31.4 19 33.2 24.1 34.6C32 36.7 40.1 37.7 48.2 38.1C59.7 38.5 71.1 37.7 82.3 34.9C87.4 33.6 92.4 31.9 96.8 29C98.4 27.9 99.9 26.6 101.2 25.1C103.1 22.8 103.1 20.4 101.3 18C100.5 17 99.6 16 98.6 15.3C94.7 12.3 90.3 10.5 85.6 9.1C75.3 5.8 64.6 4.7 53.7 4.7ZM102.6 56.9C98.7 60.1 94.4 62.2 89.8 63.8C81.1 66.8 72.1 68.3 62.9 68.9C49.4 69.8 36.1 69 23 65.5C17.3 64 11.8 62 6.9 58.6C6.2 58.1 5.6 57.6 4.8 57.1C4.8 57.4 4.7 57.6 4.7 57.7C4.7 62.9 4.8 68.2 4.7 73.4C4.7 75.6 5.6 77.3 7 78.8C9.4 81.2 12.3 82.8 15.4 84.2C23.9 87.9 32.9 89.5 42 90.3C52 91.2 62 91 72 89.5C78.9 88.5 85.7 86.9 92.2 84C95.1 82.7 98 81.1 100.2 78.8C101.6 77.3 102.5 75.7 102.5 73.6C102.4 68.3 102.5 63 102.5 57.8C102.7 57.4 102.7 57.2 102.6 56.9ZM4.8 83.4C4.8 88.4 5 93.5 4.7 98.6C4.6 101.9 5.9 104.4 8.4 106.1C10.7 107.7 13.1 109.2 15.6 110.3C24.9 114.4 34.8 115.9 44.8 116.6C53.5 117.2 62.2 117 70.9 115.8C77.5 114.9 84 113.5 90.2 111.1C93.9 109.6 97.4 107.9 100.3 105.1C101.9 103.5 102.8 101.6 102.7 99.3C102.6 94.4 102.7 89.4 102.7 84.5C102.7 84.1 102.7 83.8 102.7 83.2C102.4 83.4 102.3 83.5 102.1 83.6C99.1 86 95.7 87.8 92.2 89.2C84.2 92.4 75.8 94 67.2 94.8C54.8 96 42.4 95.6 30.1 93.4C23.7 92.2 17.4 90.6 11.6 87.6C9.3 86.3 7.1 84.8 4.8 83.4ZM4.9 30.7C4.9 31 4.8 31.1 4.8 31.2C4.8 36.6 4.8 42 4.8 47.4C4.8 49 5.3 50.4 6.4 51.6C7.1 52.4 7.8 53.1 8.6 53.8C11.7 56.3 15.2 57.9 18.9 59.2C29.4 62.9 40.4 64.2 51.4 64.4C57.9 64.5 64.3 64.2 70.8 63.3C77.7 62.4 84.4 60.9 90.9 58.3C94.4 56.9 97.7 55.2 100.4 52.5C101.8 51.1 102.7 49.5 102.7 47.4C102.7 42.1 102.7 36.7 102.7 31.4C102.7 31.2 102.6 31 102.6 30.7C99.5 33.3 96.1 35.1 92.6 36.5C82.2 40.6 71.4 42.2 60.4 42.7C50 43.2 39.7 42.7 29.5 40.6C20.7 38.9 12.2 36.4 4.9 30.7Z" fill="#5CB874"/>
<path d="M95.5 73.9C95.5 75.2 94.4 76.3 93.1 76.3C91.8 76.3 90.8 75.2 90.7 74C90.7 72.7 91.8 71.6 93.1 71.6C94.4 71.5 95.5 72.6 95.5 73.9Z" fill="#5CB874"/>
<path d="M76.3999 78.7C76.3999 80 75.3 81 74.1 81.1C72.8 81.1 71.7 80 71.7 78.7C71.7 77.4 72.8 76.3 74.1 76.3C75.4 76.4 76.3999 77.4 76.3999 78.7Z" fill="#5CB874"/>
<path d="M83.6 78.7C82.3 78.7 81.2 77.7 81.2 76.4C81.2 75.1 82.2 74.1 83.5 74.1C84.9 74.1 85.8999 75.1 85.8999 76.4C85.9999 77.6 84.9 78.6 83.6 78.7Z" fill="#5CB874"/>
<path d="M74 107.3C72.7 107.3 71.7 106.2 71.7 104.9C71.7 103.6 72.8 102.5 74.1 102.5C75.4 102.5 76.4999 103.6 76.3999 105C76.3999 106.3 75.3 107.4 74 107.3Z" fill="#5CB874"/>
<path d="M95.5001 100.2C95.5001 101.5 94.5001 102.5 93.2001 102.6C91.9001 102.6 90.8 101.5 90.8 100.2C90.8 98.9 91.9001 97.9 93.1001 97.8C94.4001 97.8 95.5001 98.9 95.5001 100.2Z" fill="#5CB874"/>
<path d="M83.6 104.9C82.3 104.9 81.2 103.9 81.2 102.5C81.2 101.2 82.2 100.2 83.5 100.2C84.9 100.2 85.8999 101.2 85.8999 102.6C85.8999 103.9 84.9 104.9 83.6 104.9Z" fill="#5CB874"/>
<path d="M95.5 47.6C95.5 48.9 94.4 50 93.1 50C91.8 50 90.8 48.9 90.7 47.7C90.7 46.4 91.8 45.3 93.1 45.3C94.4 45.3 95.5 46.3 95.5 47.6Z" fill="#5CB874"/>
<path d="M83.6 52.4C82.3 52.4 81.2 51.4 81.2 50C81.2 48.7 82.3 47.6 83.6 47.6C84.9 47.6 85.8999 48.6 85.8999 49.9C85.9999 51.3 84.9 52.4 83.6 52.4Z" fill="#5CB874"/>
<path d="M76.4 52.4C76.4 53.7 75.4 54.7 74.1 54.8C72.8 54.8 71.7 53.8 71.6 52.5C71.6 51.2 72.7 50.1 74 50.1C75.4 50.1 76.4 51.1 76.4 52.4Z" fill="#5CB874"/>
</svg>
