<svg width="121" height="120" viewBox="0 0 121 120" fill="none" xmlns="http://www.w3.org/2000/svg">
<path d="M42.4 59.9C42.4 54.8 42.5 49.7 42.4 44.7C42.3 42.1 43.5 40.3 45.6 39.1C48.2 37.6 51 36.9 53.9 36.5C59.7 35.7 65.5 35.8 71.2 37.6C72.7 38.1 74.2 38.9 75.5 39.7C77.2 40.7 77.9 42.3 77.9 44.3C77.9 54.6 77.8 64.9 77.9 75.2C77.9 77.7 76.9 79.4 74.8 80.7C72.2 82.3 69.2 83 66.2 83.4C60.4 84.2 54.6 84.1 48.9 82.3C47.8 82 46.8 81.5 45.8 81C43.4 79.7 42.2 77.9 42.3 75.1C42.5 70 42.4 64.9 42.4 59.9ZM46.5 70.6C46.5 71.6 46.5 72.6 46.5 73.5C46.5 76.8 46.8 77.2 49.9 78.3C50.1 78.4 50.3 78.4 50.5 78.5C56 80.1 61.5 80.2 67.1 79.1C69.1 78.7 71 77.8 72.9 77C73.3 76.8 73.8 76.2 73.8 75.8C73.9 74.1 73.8 72.3 73.8 70.6C64.7 73.8 55.7 73.9 46.5 70.6ZM46.5 59.8C46.5 60.8 46.5 61.8 46.5 62.8C46.5 66 46.7 66.2 49.6 67.3C49.8 67.4 50 67.4 50.2 67.5C55.5 69.1 60.9 69.3 66.3 68.4C68.5 68 70.6 67.1 72.8 66.3C73.3 66.1 73.8 65.5 73.9 65.1C74 63.4 74 61.6 74 59.9C64.7 63 55.7 63.1 46.5 59.8ZM73.9 49C64.7 52.3 55.7 52.3 46.5 49C46.5 50.1 46.5 51.1 46.5 52C46.5 55.1 46.6 55.3 49.6 56.4C49.9 56.5 50.2 56.6 50.4 56.7C55.6 58.3 60.8 58.4 66.1 57.6C68.4 57.2 70.6 56.3 72.8 55.4C73.3 55.2 73.8 54.5 73.8 54C74 52.4 73.9 50.8 73.9 49ZM74 43.6C73.1 43 72.4 42.4 71.6 42.1C64 39.3 56.3 39.3 48.7 42.1C47.9 42.4 47.2 43.1 46.4 43.6C46.4 43.8 46.4 44 46.4 44.2C47.7 44.8 49 45.6 50.4 46.1C56.3 47.9 62.4 47.9 68.4 46.6C70.3 46 72.3 45.5 74 43.6Z" fill="#5CB874"/>
<path d="M41.3 7.3C41.7 9.5 42.1 11.4 42.6 13.5C41.2 13.8 40 14.1 38.6 14.4C37.9 11 37.2 7.7 36.6 4.5C36.4 3.6 36.9 2.7 37.8 2.5C41.4 1.6 45.1 0.8 48.8 0C49.1 1.4 49.3 2.7 49.6 4C48.5 4.3 47.5001 4.5 46.5001 4.7C51.8001 7.5 57.1 10.3 62.5 13.1C62.2 12.6 61.9 12 61.6 11.3C63.4 10.3 65.2 9.4 67.1 8.3C67.7 9.5 68.3001 10.7 68.9001 11.9C67.4001 12.7 65.9001 13.5 64.4001 14.3C68.2001 17.2 72.1001 20 75.8001 23C79.5001 26 83 29.3 86.6 32.6C85.5 33.6 84.5 34.5 83.5 35.5C71.4 23.6 57.8 13.5 41.3 7.3Z" fill="#5CB874"/>
<path d="M105 36.2C108.3 35.3 111.4 34.4 114.5 33.5C115.5 33.2 116.5 33.5 116.9 34.6C118 38.1 119 41.7 120.1 45.3C118.7 45.7 117.5 46 116.2 46.4C115.8 45.2 115.5 44.1 115.1 42.7C108.9 59 99.1 72.6 87.2 84.9C86.3 83.9 85.4 82.9 84.5 81.9C96.4 69.4 106.6 55.5 112.3 38.4C111.1 38.7 110.2 39 109.3 39.2C108.3 39.5 107.4 39.7 106.3 40C105.8 38.8 105.4 37.5 105 36.2Z" fill="#5CB874"/>
<path d="M79.9 106C81.3 105.6 82.5 105.3 83.8 104.9C84.7 108.2 85.6 111.3 86.5 114.5C86.8 115.6 86.2999 116.5 85.1999 116.9C81.7999 118 78.2999 118.9 74.6999 120C74.2999 118.7 73.9999 117.4 73.5999 116.1C74.7999 115.7 75.9 115.4 77.3 115C61 108.8 47.5 99 35.2 87.2C36.2 86.3 37.0999 85.4 38.0999 84.4C44.2999 90.3 50.9 95.9 58.2 100.7C65.5 105.4 73.0999 109.5 81.5999 112.2C80.9999 109.9 80.5 108 79.9 106Z" fill="#5CB874"/>
<path d="M0 71.3C1.4 71 2.6 70.7 4 70.4C4.3 71.5 4.5 72.5 4.8 73.9C11.4 58.4 21.1 45.3 33.1 33.2C33.5 33.8 33.8 34.3 34.3 34.8C34.8 35.3 35.3 35.7 35.9 36.1C23.7 48.6 13.6 62.1 7.4 78.6C9.6 78.2 11.5 77.8 13.5 77.3C13.8 78.6 14.1 79.9 14.4 81.2C11.9 81.8 9.4 82.3 7 82.8C6.3 83 5.5 83.1 4.8 83.3C3.7 83.5 2.7 83.1 2.4 81.9C1.6 78.5 0.9 75 0 71.3Z" fill="#5CB874"/>
<path d="M88.7 117.9C88.9 116.6 89.1 115.3 89.3 114C91 114.1 92.5 114.3 94.1 114.3C98.4 114.5 102.6 114 106.4 111.9C111.5 109.1 114 104.5 114.9 98.9C115.8 92.5 114.7 86.3 112.7 80.2C111.9 77.7 110.9 75.2 110 72.6C111.1 72.1 112.3 71.6 113.6 71C114.2 72.4 114.8 73.8 115.4 75.2C117.7 81.4 119.3 87.7 119.3 94.3C119.3 100.6 117.9 106.5 113.5 111.4C110.8 114.4 107.4 116.3 103.6 117.3C98.7 118.7 93.8 118.6 88.7 117.9Z" fill="#5CB874"/>
<path d="M118 31.3C116.7 31.1 115.5 30.9 114.2 30.7C114.3 29.1 114.5 27.5 114.6 25.8C114.8 21.5 114.3 17.3 112.1 13.5C109.2 8.29999 104.5 5.79999 98.7 4.99999C92.3 4.09999 86.2 5.39999 80.2 7.29999C77.8 8.09999 75.4 8.99999 72.9 9.99999C72.4 8.79999 71.8 7.59999 71.2 6.09999C75.4 4.79999 79.4 3.29999 83.5 2.19999C89.1 0.69999 94.9 0.0999903 100.7 1.19999C110.3 2.99999 116.7 9.39999 118.3 19C118.8 22.9 118.7 28 118 31.3Z" fill="#5CB874"/>
<path d="M27 119.1C21 119.4 15.5 118.9 10.4 115.9C4.99998 112.7 1.99998 107.9 0.699982 101.9C-0.200018 97.4 -1.80006e-05 92.8 0.699982 88.1C1.99998 88.3 3.29998 88.5 4.69998 88.8C4.59998 90 4.39998 91.1 4.29998 92.3C3.89998 96.4 4.09998 100.6 5.69998 104.5C8.19998 110.7 13 113.9 19.5 114.9C21.8 115.3 24.2 115.2 26.7 115.4C26.8 116.4 26.9 117.6 27 119.1Z" fill="#5CB874"/>
<path d="M4.80005 26.5C3.50005 26.6 2.30005 26.7 1.00005 26.8C0.600049 23.3 0.800049 19.9 1.60005 16.6C4.30005 5.6 12.9 0.2 23.4 0C26.2 0 29 0.2 32 0.4C31.7 1.9 31.5 3.2 31.3 4.5C30.7 4.5 30.2001 4.4 29.7001 4.4C25.7001 3.9 21.7 3.8 17.8 4.9C10.7 6.7 6.00005 12.3 5.20005 19.9C4.90005 22.1 4.90005 24.2 4.80005 26.5Z" fill="#5CB874"/>
<path d="M53.4 106.1C54.1 107.3 54.7 108.4 55.3 109.7C53 110.9 50.7 112 48.3 113.2C47.7 111.9 47.2 110.7 46.6 109.5C48.9 108.3 51.1 107.2 53.4 106.1Z" fill="#5CB874"/>
<path d="M20.1 63.2C21.6 65.2 23 67.2 24.6 69.3C23.5 70.1 22.5 70.9 21.4 71.8C19.9 69.7 18.4 67.7 16.8 65.5C17.9 64.8 19 64 20.1 63.2Z" fill="#5CB874"/>
<path d="M38.5 33.7C37.5 32.7 36.6 31.7 35.7 30.7C37.6 28.9 39.5 27.3 41.4 25.5C42.3 26.6 43.0999 27.5 44.0999 28.6C42.1999 30.3 40.4 31.9 38.5 33.7Z" fill="#5CB874"/>
<path d="M13.9 53.2C12.7 53.8 11.6 54.5 10.3 55.2C9.10005 52.8 8.00005 50.6 6.80005 48.2C8.10005 47.6 9.30005 47.1 10.5 46.5C11.7 48.8 12.8 50.9 13.9 53.2Z" fill="#5CB874"/>
<path d="M103.9 53.7C102.7 54.5 101.7 55.2 100.5 56C99 54 97.6 52 96.1 49.9C97.2 49.1 98.2 48.3 99.3 47.4C100.9 49.5 102.4 51.5 103.9 53.7Z" fill="#5CB874"/>
<path d="M65.7 103.2C64.9 102 64.2 101 63.4 99.8C65.4 98.3 67.4 96.9 69.5 95.3C70.3 96.3 71.1 97.4 72 98.5C69.9 100.2 67.9 101.6 65.7 103.2Z" fill="#5CB874"/>
<path d="M80.7 85.6C81.7 86.6 82.6 87.4 83.7 88.4C81.8 90.2 79.9 91.9 78 93.7C77.1 92.6 76.2 91.7 75.3 90.6C77.2 88.9 79 87.3 80.7 85.6Z" fill="#5CB874"/>
<path d="M53.8 16.1C54.6 17.3 55.3 18.3 56.1 19.5C54.1 21 52.1 22.4 50 23.9C49.2 22.8 48.4 21.8 47.5 20.7C49.6 19.1 51.7 17.6 53.8 16.1Z" fill="#5CB874"/>
<path d="M94.5 41.3C93.4 42.2 92.5 43 91.4 43.9C89.7 42 88.1 40.2 86.5 38.5C87.4 37.5 88.3 36.6 89.3 35.5C91 37.5 92.7 39.3 94.5 41.3Z" fill="#5CB874"/>
<path d="M34.2999 80.6C33.3999 81.6 32.5 82.6 31.5 83.6C29.7 81.6 28 79.8 26.2 77.8C27.2 76.9 28.1999 76 29.2999 75.1C31.0999 77 32.6999 78.8 34.2999 80.6Z" fill="#5CB874"/>
<path d="M2.09998 34.4C3.49998 34.1 4.79998 33.8 6.09998 33.5C6.69998 35.5 7.19998 37.5 7.79998 39.6C6.49998 40 5.29998 40.5 3.99998 40.9C3.29998 38.7 2.69998 36.6 2.09998 34.4Z" fill="#5CB874"/>
<path d="M34.5999 117.9C34.2999 116.5 34 115.3 33.7 113.9C35.7 113.3 37.6999 112.8 39.7999 112.1C40.1999 113.3 40.5999 114.6 41.0999 116C38.7999 116.7 36.7999 117.3 34.5999 117.9Z" fill="#5CB874"/>
<path d="M108.1 68.8C107.1 67 106.3 65.4 105.4 63.6C106.6 62.9 107.7 62.3 108.9 61.6C109.9 63.4 110.8 65.1 111.8 67C110.5 67.5 109.4 68.1 108.1 68.8Z" fill="#5CB874"/>
</svg>
