<svg width="44" height="42" viewBox="0 0 44 42" fill="none" xmlns="http://www.w3.org/2000/svg">
<path d="M36.4699 40.4895C36.6081 40.1733 36.6859 39.8236 36.6859 39.4554C36.6859 38.1294 35.6872 37.0375 34.4181 36.9215V31.2666C35.6872 31.1506 36.6859 30.0587 36.6859 28.7327C36.6859 28.3641 36.6081 28.0144 36.4699 27.6982H38.9002C40.2744 27.6982 41.3921 26.5567 41.3921 25.1532C41.3921 23.8272 40.3938 22.7353 39.1243 22.6192V18.1728C40.3938 18.0568 41.3921 16.9648 41.3921 15.6388C41.3921 14.2354 40.2744 13.0939 38.9002 13.0939H33.1949C34.8125 11.7966 35.8548 9.78341 35.8548 7.5248V7.07952C35.8548 3.17591 32.745 0 28.9228 0H2.49195C1.11772 0 0 1.1419 0 2.54498C0 3.87096 0.998705 4.9629 2.26779 5.07894V9.74743C2.26779 10.1644 2.59902 10.5027 3.00728 10.5027C3.41593 10.5027 3.74678 10.1644 3.74678 9.74743V5.08956H28.9228C29.997 5.08956 30.8709 5.98207 30.8709 7.07952V7.5248C30.8709 8.62185 29.997 9.51436 28.9228 9.51436H2.49195C1.11772 9.51436 0 10.6563 0 12.0593C0 13.4624 1.1181 14.6043 2.49195 14.6043H8.19723C6.57959 15.9012 5.53736 17.9148 5.53736 20.1734V20.6186C5.53736 22.8769 6.57959 24.8904 8.19762 26.1877H7.76317C6.45672 26.1877 4.46672 27.0752 3.38205 27.8165C2.88899 28.1535 2.00673 28.9366 1.743 29.5649C1.47927 30.1932 2.93608 30.6025 3.07255 30.2265C3.6923 28.5191 6.73634 27.6982 7.76317 27.6982H34.194C34.7525 27.6982 35.2069 28.1623 35.2069 28.7327C35.2069 29.3026 34.7525 29.7668 34.194 29.7668H7.76317C5.8736 29.7668 4.33606 31.3371 4.33606 33.2672V34.9205C4.33606 36.8506 5.8736 38.4209 7.76317 38.4209H34.194C34.7525 38.4209 35.2069 38.8851 35.2069 39.4554C35.2069 40.025 34.7536 40.4887 34.1959 40.4895H7.75931C4.75434 40.4876 2.31015 37.9902 2.31015 34.9205V33.2668C2.31015 32.416 2.70935 30.988 3.07255 30.2265C3.25126 29.8516 3.09874 29.3993 2.73169 29.2168C2.36464 29.0339 1.92171 29.1896 1.743 29.5649C1.28043 30.5341 0.831163 32.1847 0.831163 33.2668V34.9205C0.831163 37.1791 1.87339 39.1927 3.49104 40.4895H1.02913C0.620868 40.4895 0.289636 40.8278 0.289636 41.2448C0.289636 41.6621 0.620868 42 1.02913 42H43.2605C43.6688 42 44 41.6621 44 41.2448C44 40.8278 43.6688 40.4895 43.2605 40.4895H36.4699ZM12.4697 22.6082C11.3952 22.6082 10.5213 21.7157 10.5213 20.6183V20.1734C10.5213 19.0759 11.3952 18.1834 12.4697 18.1834H37.6453V22.6082H12.4697ZM12.4697 26.1877C9.46285 26.1877 7.01635 23.6891 7.01635 20.6183V20.1734C7.01635 17.1025 9.46285 14.6039 12.4697 14.6039H19.2257C19.634 14.6039 19.9652 14.266 19.9652 13.8487C19.9652 13.4317 19.634 13.0935 19.2257 13.0935H2.49195C1.93347 13.0935 1.47899 12.6297 1.47899 12.0593C1.47899 11.489 1.93347 11.0248 2.49195 11.0248H28.9228C30.8123 11.0248 32.3499 9.45457 32.3499 7.5248V7.07952C32.3499 5.14935 30.8123 3.5791 28.9228 3.5791H2.49195C1.93347 3.5791 1.47899 3.11534 1.47899 2.54498C1.47899 1.97423 1.93347 1.51047 2.49195 1.51047H28.9228C31.9293 1.51047 34.3758 4.00863 34.3758 7.07952V7.5248C34.3758 10.5957 31.9293 13.0939 28.9228 13.0939H18.7524C18.3437 13.0939 18.0129 13.4317 18.0129 13.8491C18.0129 14.2664 18.3437 14.6043 18.7524 14.6043H38.9002C39.4587 14.6043 39.9131 15.0685 39.9131 15.6388C39.9131 16.2092 39.4587 16.6729 38.9002 16.6729H12.4697C10.5798 16.6729 9.04226 18.2432 9.04226 20.1734V20.6186C9.04226 22.5484 10.5798 24.1187 12.4697 24.1187H38.9002C39.4587 24.1187 39.9131 24.5828 39.9131 25.1532C39.9131 25.7235 39.4587 26.1877 38.9002 26.1877H12.4697ZM5.81506 34.9205V33.2672C5.81506 32.1698 6.68897 31.2773 7.76317 31.2773H32.9391V33.4411H13.5516C13.1434 33.4411 12.8122 33.779 12.8122 34.1963C12.8122 34.6133 13.1434 34.9516 13.5516 34.9516H32.9391V36.9104H7.76317C6.68897 36.9104 5.81506 36.0179 5.81506 34.9205Z" fill="#5CB874"/>
</svg>
