<svg width="42" height="42" viewBox="0 0 42 42" fill="none" xmlns="http://www.w3.org/2000/svg">
<path d="M17.3927 0C20.1173 0 22.5377 1.659 23.5376 4.16477C24.0348 4.36529 24.3871 4.851 24.3871 5.41935V7.43603L24.8572 17.7843C25.9431 17.2457 27.1605 16.9355 28.4516 16.9355C32.9341 16.9355 36.5806 20.582 36.5806 25.0645V34.0789L37.1205 34.2808C40.0389 35.3762 42 38.2051 42 41.3219V41.9993L0 42V30.1858C0 28.474 0.501968 26.8163 1.45103 25.3924C2.42516 23.9312 3.80168 22.8148 5.43155 22.1618L6.1171 21.8881L6.77419 7.43603V5.41935C6.77419 4.851 7.12645 4.36529 7.623 4.16477C8.62355 1.659 11.0433 0 13.7679 0H17.3927ZM17.6129 25.7419H13.5484V40.6452H14.9371C15.1207 38.6468 16.105 36.8184 17.6129 35.5544V25.7419ZM6.89952 23.035L5.93555 23.4197C4.56106 23.9698 3.39997 24.9121 2.57894 26.1436C1.77823 27.3454 1.35484 28.7422 1.35484 30.1858V40.6452H5.41935V32.5161C5.41935 30.6078 4.50755 28.7842 2.98065 27.6387L3.79355 26.5548C5.65984 27.9551 6.77419 30.1838 6.77419 32.5161V40.6452H12.1935V27.9998L9.48387 24.3871C8.87284 23.5722 7.91361 23.0729 6.89952 23.035ZM35.9716 35.2976L30.0585 38.8453C29.5734 39.1359 29.0179 39.2903 28.4516 39.2903C27.8853 39.2903 27.3298 39.1359 26.8448 38.8453L20.9316 35.2976L20.2582 35.5503C18.0796 36.3666 16.567 38.3663 16.3109 40.6452H20.3226V39.2903H21.6774V40.6452H35.2258V39.2903H36.5806V40.6452H40.6072C40.3518 38.365 38.8243 36.3673 36.645 35.5503L35.9716 35.2976ZM28.4516 18.2903C24.7163 18.2903 21.6774 21.3292 21.6774 25.0645V34.165L27.5418 37.6835C28.0912 38.0127 28.812 38.0127 29.3614 37.6835L35.2258 34.165V25.0645C35.2258 21.3292 32.1869 18.2903 28.4516 18.2903ZM20.3226 26.1931L18.9677 27.9998V34.6507C19.2313 34.5138 19.5009 34.3872 19.7827 34.2815L20.3226 34.0789V26.1931ZM29.129 21C31.7439 21 33.871 23.1278 33.871 25.7419V28.4516C33.871 31.4397 31.4397 33.871 28.4516 33.871C25.4635 33.871 23.0323 31.4397 23.0323 28.4516V25.7419C23.0323 23.1278 25.1594 21 27.7742 21H29.129ZM16.2581 32.5161V33.871H14.9032V32.5161H16.2581ZM29.129 22.3548H27.7742C25.9065 22.3548 24.3871 23.8743 24.3871 25.7419V28.4516C24.3871 30.6932 26.21 32.5161 28.4516 32.5161C30.6932 32.5161 32.5161 30.6932 32.5161 28.4516V25.7419C32.5161 23.8743 30.9967 22.3548 29.129 22.3548ZM29.8776 28.8256L31.0895 29.4318L31.0184 29.5748C30.5293 30.5536 29.5456 31.1613 28.4516 31.1613C27.3576 31.1613 26.374 30.5536 25.8849 29.5755L25.8137 29.4325L27.0256 28.8262L27.0968 28.9692C27.3549 29.4854 27.8738 29.8064 28.4516 29.8064C29.0295 29.8064 29.5484 29.4854 29.8065 28.9692L29.8776 28.8256ZM16.2581 28.4516V29.8064H14.9032V28.4516H16.2581ZM26.4194 26.4194C26.7935 26.4194 27.0968 26.7226 27.0968 27.0968C27.0968 27.4709 26.7935 27.7742 26.4194 27.7742C26.0452 27.7742 25.7419 27.4709 25.7419 27.0968C25.7419 26.7226 26.0452 26.4194 26.4194 26.4194ZM30.4839 26.4194C30.858 26.4194 31.1613 26.7226 31.1613 27.0968C31.1613 27.4709 30.858 27.7742 30.4839 27.7742C30.1097 27.7742 29.8065 27.4709 29.8065 27.0968C29.8065 26.7226 30.1097 26.4194 30.4839 26.4194ZM23.0621 8.12903H21.6774V15.5806C21.6774 17.6895 20.6003 19.551 18.9677 20.6464V25.7419L20.433 23.7889C20.7676 21.6808 21.9105 19.8443 23.5383 18.6033L23.0621 8.12903ZM9.48387 8.12903H8.09923L7.48006 21.737C8.69874 21.9233 9.81987 22.577 10.5677 23.5742L12.1935 25.7419V20.6464C10.561 19.5517 9.48387 17.6901 9.48387 15.5806V8.12903ZM17.6129 21.3218C16.9761 21.548 16.294 21.6774 15.5806 21.6774C14.8673 21.6774 14.1852 21.548 13.5484 21.3218V24.3871H17.6129V21.3218ZM16.924 16.2581H14.2373C13.335 16.2581 12.5316 16.8644 12.283 17.7321L12.0093 18.6907C12.8798 19.6878 14.156 20.3226 15.5806 20.3226C17.0053 20.3226 18.2815 19.6878 19.152 18.6907L18.8783 17.7321C18.6304 16.8644 17.827 16.2581 16.924 16.2581ZM16.9355 17.6129V18.9677H14.2258V17.6129H16.9355ZM20.3226 8.12903H10.8387V15.5806C10.8387 16.1056 10.9281 16.609 11.086 17.0811C11.5839 15.7879 12.8337 14.9032 14.2373 14.9032H16.924C18.3276 14.9032 19.5774 15.7879 20.0753 17.0811C20.2332 16.609 20.3226 16.1056 20.3226 15.5806V8.12903ZM18.2903 12.1935C18.6645 12.1935 18.9677 12.4968 18.9677 12.871C18.9677 13.2451 18.6645 13.5484 18.2903 13.5484C17.9162 13.5484 17.6129 13.2451 17.6129 12.871C17.6129 12.4968 17.9162 12.1935 18.2903 12.1935ZM12.871 12.1935C13.2451 12.1935 13.5484 12.4968 13.5484 12.871C13.5484 13.2451 13.2451 13.5484 12.871 13.5484C12.4968 13.5484 12.1935 13.2451 12.1935 12.871C12.1935 12.4968 12.4968 12.1935 12.871 12.1935ZM23.0323 5.41935H8.12903V6.77419H23.0323V5.41935ZM17.3934 1.35484H13.7685C11.8298 1.35484 10.0902 2.41568 9.17361 4.06452H21.9884C21.0718 2.41568 19.3322 1.35484 17.3934 1.35484Z" fill="#5CB874"/>
</svg>
