<svg width="42" height="33" viewBox="0 0 42 33" fill="none" xmlns="http://www.w3.org/2000/svg">
<path d="M20.9964 0C15.1052 0 10.3879 2.6831 6.95382 5.87657C3.54162 9.04088 1.25953 12.8322 0.180453 15.4351C-0.060151 16.0111 -0.060151 16.6527 0.180453 17.2287C1.25953 19.8316 3.54162 23.623 6.95382 26.7873C10.3879 29.9807 15.1052 32.6638 20.9964 32.6638C26.8875 32.6638 31.6048 29.9807 35.0389 26.7873C38.4511 23.6157 40.7332 19.8316 41.8195 17.2287C42.0601 16.6527 42.0601 16.0111 41.8195 15.4351C40.7332 12.8322 38.4511 9.04088 35.0389 5.87657C31.6048 2.6831 26.8875 0 20.9964 0ZM10.4973 16.3319C10.4973 13.5474 11.6034 10.8769 13.5724 8.90794C15.5413 6.93898 18.2118 5.83283 20.9964 5.83283C23.7809 5.83283 26.4514 6.93898 28.4203 8.90794C30.3893 10.8769 31.4954 13.5474 31.4954 16.3319C31.4954 19.1164 30.3893 21.7869 28.4203 23.7559C26.4514 25.7249 23.7809 26.831 20.9964 26.831C18.2118 26.831 15.5413 25.7249 13.5724 23.7559C11.6034 21.7869 10.4973 19.1164 10.4973 16.3319ZM20.9964 11.6657C20.9964 14.2394 18.9038 16.3319 16.3301 16.3319C15.8124 16.3319 15.3166 16.2444 14.85 16.0913C14.449 15.9601 13.9824 16.208 13.997 16.6309C14.0188 17.1339 14.0917 17.637 14.2303 18.1401C15.2291 21.8731 19.0715 24.0896 22.8045 23.0907C26.5375 22.0918 28.754 18.2495 27.7551 14.5165C26.9458 11.4907 24.27 9.45647 21.2953 9.33252C20.8724 9.31794 20.6245 9.77728 20.7558 10.1856C20.9089 10.6522 20.9964 11.148 20.9964 11.6657Z" fill="#5CB874"/>
</svg>
