<svg width="42" height="29" viewBox="0 0 42 29" fill="none" xmlns="http://www.w3.org/2000/svg">
<path d="M35.28 12.5969C35.5491 11.9042 35.7 11.1469 35.7 10.3571C35.7 6.92634 32.8781 4.14286 29.4 4.14286C28.1072 4.14286 26.8997 4.53125 25.9022 5.19152C24.0844 2.08437 20.6916 0 16.8 0C10.9987 0 6.3 4.63482 6.3 10.3571C6.3 10.5319 6.30656 10.7067 6.31312 10.8815C2.63812 12.1567 0 15.6134 0 19.6786C0 24.8248 4.23281 29 9.45 29H33.6C38.2397 29 42 25.2908 42 20.7143C42 16.7074 39.1125 13.3607 35.28 12.5969ZM26.5584 18.3386L19.6416 25.1614C19.2347 25.5627 18.5653 25.5627 18.1584 25.1614L11.2416 18.3386C10.5787 17.6848 11.0512 16.5714 11.9831 16.5714H16.275V9.32143C16.275 8.75179 16.7475 8.28571 17.325 8.28571H20.475C21.0525 8.28571 21.525 8.75179 21.525 9.32143V16.5714H25.8169C26.7487 16.5714 27.2212 17.6848 26.5584 18.3386Z" fill="#5CB874"/>
</svg>
