<svg width="42" height="61" viewBox="0 0 42 61" fill="none" xmlns="http://www.w3.org/2000/svg">
<path d="M30.5455 45.3293C31.6909 41.5636 34.0653 38.3528 36.4159 35.1538C37.0364 34.3157 37.6568 33.4776 38.2534 32.6276C40.6159 29.2633 42 25.1908 42 20.7877C42 9.30194 32.5977 0 21 0C9.40227 0 0 9.30194 0 20.7759C0 25.179 1.38409 29.2633 3.74659 32.6158C4.34318 33.4657 4.96364 34.3039 5.58409 35.142C7.94659 38.341 10.321 41.5636 11.4545 45.3175H30.5455V45.3293ZM21 60.439C26.2739 60.439 30.5455 56.213 30.5455 50.9954V49.1067H11.4545V50.9954C11.4545 56.213 15.7261 60.439 21 60.439ZM11.4545 20.7759C11.4545 21.8147 10.5955 22.6646 9.54545 22.6646C8.49545 22.6646 7.63636 21.8147 7.63636 20.7759C7.63636 13.4689 13.6142 7.55488 21 7.55488C22.05 7.55488 22.9091 8.4048 22.9091 9.4436C22.9091 10.4824 22.05 11.3323 21 11.3323C15.7261 11.3323 11.4545 15.5583 11.4545 20.7759Z" fill="#5CB874"/>
</svg>
