<svg width="124" height="125" viewBox="0 0 124 125" fill="none" xmlns="http://www.w3.org/2000/svg">
<path d="M74.9 106.412C75.8 109.012 76.6 111.512 77.4 113.912C77.5 114.112 78 114.312 78.4 114.312C80.2 114.312 82 114.312 83.8 114.312C85.4 114.312 86.1 115.112 86.1 116.612C86.1 117.212 86.1 117.812 86.1 118.312C86.1 118.912 86.1 119.512 86.1 120.212C86.6 120.212 87 120.212 87.5 120.212C93.4 120.212 99.3 120.212 105.2 120.212C105.6 120.212 106 120.212 106.4 120.212C107.4 120.412 108 121.112 108 122.112C108 123.212 107.4 123.812 106.4 124.112C106 124.212 105.5 124.212 105 124.212C76.3 124.212 47.7 124.212 19 124.212C16.9 124.212 16 123.612 16 122.212C16 120.812 16.9 120.212 19 120.212C24.8 120.212 30.7 120.212 36.5 120.212C37 120.212 37.4 120.212 38 120.212C38 119.112 38 118.012 38 116.912C38 114.812 38.6 114.212 40.8 114.212C42.4 114.212 44 114.212 45.5 114.212C46.2 114.212 46.6 114.112 46.9 113.312C47.6 111.012 48.4 108.712 49.2 106.212C48.6 106.212 48.1 106.212 47.7 106.212C34.7 106.212 21.7 106.212 8.7 106.212C3.3 106.212 0 102.912 0 97.512C0 78.012 0 58.412 0 38.912C0 33.612 3.3 30.212 8.6 30.212C12.6 30.212 16.6 30.212 20.6 30.212C21 30.212 21.4 30.212 22 30.212C22 29.412 22 28.712 22 28.012C22 24.212 22 20.412 22 16.612C22 14.912 22.7 14.212 24.4 14.212C26.8 14.212 29.1 14.212 31.5 14.212C33.2 14.212 33.9 14.912 33.9 16.612C33.9 21.112 33.9 25.512 33.9 30.112C34.5 30.112 35.1 30.112 35.9 30.112C35.9 29.712 35.9 29.212 35.9 28.812C35.9 20.212 35.9 11.612 35.9 3.11204C35.9 0.812041 36.5 0.212041 38.8 0.212041C41 0.212041 43.2 0.212041 45.4 0.212041C47.2 0.212041 47.9 0.912041 47.9 2.71204C47.9 11.412 47.9 20.012 47.9 28.712C47.9 29.112 47.9 29.612 47.9 30.112C48.6 30.112 49.1 30.112 49.9 30.112C49.9 29.712 49.9 29.312 49.9 28.812C49.9 22.812 49.9 16.812 49.9 10.812C49.9 8.81204 50.6 8.21204 52.5 8.21204C54.7 8.21204 56.8 8.21204 59 8.21204C61.3 8.21204 61.9 8.81204 61.9 11.012C61.9 16.912 61.9 22.712 61.9 28.612C61.9 29.112 61.9 29.512 61.9 30.112C66 30.112 70 30.112 74 30.112C78 30.112 82.1 30.112 86.4 30.112C82.9 25.812 81.3 21.012 82.1 15.612C82.9 10.212 85.6 5.91204 90.1 2.91204C97.3 -1.78796 106.7 -0.687959 112.7 5.41204C118.3 11.112 120.4 21.312 113.4 30.012C114.3 30.012 115.1 30.012 115.8 30.012C120.3 30.112 123.8 33.512 123.8 38.012C123.8 58.012 123.8 78.012 123.8 98.012C123.8 102.612 120.3 106.012 115.6 106.012C102.5 106.012 89.4 106.012 76.2 106.012C76.1 106.412 75.6 106.412 74.9 106.412ZM64.2 50.312C64.2 46.412 64.2 42.612 64.2 38.712C64.2 37.112 64.9 36.312 66.6 36.312C69 36.312 71.4 36.312 73.8 36.312C75.4 36.312 76.2 37.012 76.2 38.712C76.2 43.112 76.2 47.512 76.2 51.912C76.2 53.512 75.5 54.312 73.8 54.312C52.7 54.312 31.6 54.312 10.6 54.312C9 54.312 8.2 53.612 8.2 51.912C8.2 47.512 8.2 43.112 8.2 38.712C8.2 37.112 8.9 36.312 10.6 36.312C13 36.312 15.3 36.312 17.7 36.312C19.5 36.312 20.2 37.012 20.2 38.812C20.2 42.212 20.2 45.512 20.2 48.912C20.2 49.312 20.2 49.812 20.2 50.212C20.9 50.212 21.5 50.212 22.1 50.212C22.1 44.912 22.1 39.612 22.1 34.312C17.7 34.312 13.3 34.312 8.9 34.312C5.7 34.312 4.1 35.812 4.1 39.012C4.1 55.612 4.1 72.212 4.1 88.912C4.1 89.312 4.1 89.812 4.1 90.212C42.9 90.212 81.4 90.212 120 90.212C120 90.012 120.1 89.912 120.1 89.912C120.1 72.712 120.1 55.512 120.1 38.312C120.1 36.112 118.4 34.412 116.1 34.412C113.9 34.412 111.7 34.412 109.5 34.412C108.8 34.412 108.1 34.612 107.5 34.812C102.6 36.912 97.7 36.912 92.8 34.812C92.2 34.612 91.5 34.412 90.9 34.412C81.7 34.412 72.6 34.412 63.4 34.412C63 34.412 62.6 34.412 62.2 34.512C62.2 39.912 62.2 45.112 62.2 50.412C62.8 50.312 63.4 50.312 64.2 50.312ZM120.1 94.512C81.4 94.512 42.8 94.512 4.1 94.512C4.1 95.512 4.1 96.512 4.1 97.412C4.1 101.012 5.5 102.412 9.1 102.412C44.4 102.412 79.8 102.412 115.1 102.412C115.5 102.412 115.9 102.412 116.3 102.412C118.3 102.312 119.9 100.712 120 98.712C120.2 97.312 120.1 95.912 120.1 94.512ZM40.2 4.51204C40.2 19.912 40.2 35.112 40.2 50.312C41.6 50.312 42.8 50.312 44 50.312C44 35.012 44 19.712 44 4.51204C42.8 4.51204 41.6 4.51204 40.2 4.51204ZM98.2 4.51204C92.9 5.51204 89.2 8.31204 87.2 13.212C85.3 17.912 86 22.512 88.9 26.812C91.9 23.812 94.9 20.812 97.8 17.912C98 17.712 98.1 17.412 98.1 17.112C98.2 13.012 98.2 8.91204 98.2 4.51204ZM91.9 29.512C94.9 32.512 101.1 33.212 105.7 31.212C110.2 29.212 114 24.312 113.8 20.312C109.7 20.312 105.6 20.312 101.5 20.312C101.2 20.312 100.8 20.512 100.6 20.712C97.7 23.712 94.8 26.612 91.9 29.512ZM73.4 114.412C72.6 112.012 71.8 109.712 71.1 107.412C70.9 106.612 70.5 106.412 69.7 106.412C65.5 106.412 61.4 106.412 57.2 106.412C56 106.412 54.6 106.012 53.8 106.612C53 107.212 52.9 108.612 52.5 109.712C52 111.212 51.5 112.712 51 114.312C58.5 114.412 65.8 114.412 73.4 114.412ZM58.1 50.412C58.1 37.712 58.1 25.112 58.1 12.512C56.8 12.512 55.5 12.512 54.3 12.512C54.3 25.212 54.3 37.712 54.3 50.412C55.5 50.412 56.8 50.412 58.1 50.412ZM30.1 50.312C30.1 39.612 30.1 29.012 30.1 18.512C28.8 18.512 27.5 18.512 26.2 18.512C26.2 29.212 26.2 39.712 26.2 50.312C27.5 50.312 28.7 50.312 30.1 50.312ZM113.9 16.412C113.4 10.012 107 4.81204 102.3 4.81204C102.3 8.61204 102.3 12.512 102.3 16.412C106.2 16.412 110 16.412 113.9 16.412ZM82.1 118.512C68.7 118.512 55.5 118.512 42.2 118.512C42.2 119.212 42.2 119.712 42.2 120.412C55.5 120.412 68.8 120.412 82.1 120.412C82.1 119.712 82.1 119.112 82.1 118.512ZM12.2 40.512C12.2 43.912 12.2 47.112 12.2 50.312C13.6 50.312 14.8 50.312 16 50.312C16 47.012 16 43.712 16 40.512C14.8 40.512 13.6 40.512 12.2 40.512ZM72.1 40.512C70.8 40.512 69.5 40.512 68.2 40.512C68.2 43.812 68.2 47.112 68.2 50.312C69.5 50.312 70.8 50.312 72.1 50.312C72.1 47.012 72.1 43.812 72.1 40.512ZM34.2 34.512C34.2 39.912 34.2 45.112 34.2 50.412C34.9 50.412 35.4 50.412 36.1 50.412C36.1 45.112 36.1 39.812 36.1 34.512C35.5 34.512 34.9 34.512 34.2 34.512ZM48.2 34.512C48.2 39.912 48.2 45.112 48.2 50.412C48.9 50.412 49.4 50.412 50.1 50.412C50.1 45.112 50.1 39.812 50.1 34.512C49.5 34.512 48.9 34.512 48.2 34.512Z" fill="#5CB874"/>
<path d="M19.6001 75.2121C17.6001 78.0121 15.3001 78.9121 12.7001 78.2121C10.0001 77.5121 8.10006 75.0121 8.20006 72.2121C8.30006 69.5121 10.3001 67.212 13.0001 66.612C15.6001 66.012 18.5001 67.412 19.6001 70.012C20.0001 70.912 20.5001 71.4121 21.4001 71.7121C27.9001 74.4121 34.3001 77.1121 40.7001 79.7121C44.6001 75.6121 47.4001 75.412 51.3001 79.112C54.2001 76.912 57.1001 74.712 60.0001 72.512C63.8001 69.712 67.5001 66.912 71.3001 64.012C71.8001 63.612 72.2001 63.012 72.4001 62.512C73.3001 60.112 75.5001 58.512 78.0001 58.412C80.5001 58.412 82.8001 59.912 83.7001 62.312C83.9001 62.712 84.1001 63.312 84.5001 63.512C91.2001 67.512 98.0001 71.4121 104.5 75.2121C105.9 74.3121 107 73.212 108.3 72.812C111.3 71.712 114.7 73.512 115.7 76.612C116.7 79.612 115.2 82.912 112.2 84.112C109.2 85.312 105.8 83.912 104.5 80.912C104.1 80.012 103.6 79.512 102.8 79.012C96.6001 75.412 90.5001 71.812 84.4001 68.312C84.0001 68.112 83.7001 67.912 83.2001 67.612C81.9001 69.312 80.3001 70.512 78.1001 70.512C75.9001 70.612 74.3001 69.612 72.9001 67.812C72.3001 68.312 71.7001 68.712 71.1001 69.112C65.0001 73.712 58.8001 78.312 52.7001 82.912C52.2001 83.212 51.8001 83.812 51.6001 84.312C50.7001 86.712 48.6001 88.312 46.1001 88.412C43.6001 88.512 41.3001 87.1121 40.3001 84.7121C40.1001 84.3121 39.8001 83.812 39.4001 83.612C33.0001 80.812 26.3001 78.0121 19.6001 75.2121ZM80.1001 64.412C80.1001 63.312 79.2001 62.412 78.1001 62.412C77.0001 62.412 76.1001 63.312 76.1001 64.412C76.1001 65.512 77.0001 66.512 78.2001 66.412C79.3001 66.412 80.2001 65.412 80.1001 64.412ZM16.1001 72.512C16.2001 71.412 15.3001 70.512 14.2001 70.412C13.1001 70.312 12.2001 71.2121 12.1001 72.2121C12.1001 73.4121 13.0001 74.412 14.1001 74.412C15.2001 74.412 16.1001 73.612 16.1001 72.512ZM112.1 78.412C112.1 77.312 111.3 76.412 110.2 76.412C109.1 76.412 108.2 77.212 108.1 78.312C108 79.412 109 80.412 110.1 80.412C111.2 80.412 112.1 79.512 112.1 78.412ZM48.1001 82.412C48.1001 81.312 47.2001 80.412 46.1001 80.412C45.0001 80.412 44.1001 81.312 44.1001 82.312C44.1001 83.412 45.0001 84.412 46.1001 84.312C47.3001 84.412 48.2001 83.512 48.1001 82.412Z" fill="#5CB874"/>
<path d="M101.1 38.412C103.8 38.412 106.6 38.412 109.3 38.412C111.1 38.412 112 39.112 112.1 40.412C112.1 41.712 111.2 42.412 109.4 42.412C104.3 42.412 99.2 42.412 94.1 42.412C93.5 42.412 92.7 42.712 92.3 43.112C90.1 45.212 88 47.412 85.8 49.512C84.7 50.612 83.5 50.612 82.6 49.612C81.9 48.812 81.9 47.712 82.7 46.912C85.3 44.212 88 41.612 90.7 39.012C91.1 38.612 92 38.412 92.6 38.412C95.5 38.412 98.3 38.412 101.1 38.412Z" fill="#5CB874"/>
<path d="M21.3 56.412C24.8 56.412 28.1999 56.412 31.6999 56.412C33.2999 56.412 34.1999 57.212 34.1999 58.412C34.1999 59.612 33.2999 60.412 31.6999 60.412C24.6999 60.412 17.7 60.412 10.7 60.412C9.09995 60.412 8.19995 59.612 8.19995 58.412C8.19995 57.212 9.09995 56.412 10.7 56.412C14.2 56.412 17.7 56.412 21.3 56.412Z" fill="#5CB874"/>
<path d="M87.2 88.412C85 88.412 82.8 88.412 80.6 88.412C79.1 88.412 78.2 87.612 78.2 86.412C78.2 85.212 79.1 84.412 80.6 84.412C85 84.412 89.3999 84.412 93.7999 84.412C95.2999 84.412 96.2 85.212 96.2 86.412C96.2 87.612 95.2999 88.412 93.7999 88.412C91.5999 88.412 89.4 88.412 87.2 88.412Z" fill="#5CB874"/>
<path d="M91.2001 78.412C92.2001 78.412 93.1001 78.412 94.1001 78.412C95.4001 78.412 96.2001 79.312 96.2001 80.412C96.2001 81.512 95.4001 82.412 94.1001 82.412C92.2001 82.412 90.3001 82.412 88.4001 82.412C87.1001 82.412 86.3 81.512 86.3 80.412C86.3 79.312 87.1001 78.512 88.4001 78.412C89.2001 78.412 90.2001 78.412 91.2001 78.412Z" fill="#5CB874"/>
<path d="M39.1 60.412C38.9 60.412 38.6 60.412 38.4 60.412C37.1 60.312 36.2 59.512 36.2 58.412C36.2 57.312 37.1 56.512 38.4 56.512C38.9 56.512 39.5 56.512 40 56.512C41.3 56.512 42.2 57.412 42.2 58.512C42.2 59.612 41.3 60.412 40 60.412C39.7 60.412 39.4 60.412 39.1 60.412Z" fill="#5CB874"/>
<path d="M16.2 96.412C18.1 96.412 19.9 96.412 21.8 96.412C23.3 96.412 24.2 97.212 24.2 98.412C24.2 99.612 23.3 100.412 21.8 100.412C18.1 100.412 14.3 100.412 10.6 100.412C9.09995 100.412 8.19995 99.612 8.19995 98.412C8.19995 97.212 9.09995 96.412 10.6 96.412C12.4 96.412 14.3 96.412 16.2 96.412Z" fill="#5CB874"/>
<path d="M29.1 100.412C28.7 100.412 28.3 100.412 28 100.412C26.9 100.312 26.1 99.412 26.2 98.412C26.3 97.312 26.9 96.612 28 96.512C28.7 96.412 29.3 96.512 30 96.512C31.3 96.512 32.1 97.312 32.2 98.412C32.2 99.612 31.4 100.412 30 100.512C29.7 100.412 29.4 100.412 29.1 100.412Z" fill="#5CB874"/>
</svg>
