<svg width="46" height="42" viewBox="0 0 46 42" fill="none" xmlns="http://www.w3.org/2000/svg">
<path d="M40.8503 9.19561H33.8716V7.20641C33.8716 6.8401 33.5731 6.54323 33.2048 6.54323H32.6271V5.61464C32.6271 2.51865 30.0944 0 26.9816 0H18.0916C14.9788 0 12.4464 2.51865 12.4464 5.61464V6.54323H11.8684C11.5001 6.54323 11.2016 6.8401 11.2016 7.20641V9.19596H8.65686C8.28856 9.19596 7.99008 9.49283 7.99008 9.85879C7.99008 10.2251 8.28856 10.522 8.65686 10.522H40.8503C42.4435 10.522 43.7396 11.8114 43.7396 13.396V19.2316C43.7396 20.6021 42.7582 21.7878 41.4132 22.0505L25.32 25.0162H19.7529L3.6668 22.0515C2.31501 21.7878 1.33357 20.6021 1.33357 19.2316V13.3956C1.33357 11.8111 2.62966 10.522 4.22286 10.522H9.88303C10.2513 10.522 10.5498 10.2251 10.5498 9.85879C10.5498 9.49249 10.2513 9.19561 9.88303 9.19561H4.22286C1.89444 9.19561 0 11.0798 0 13.3956V19.2316C0 20.6222 0.691889 21.8822 1.77786 22.6525V37.8C1.77786 40.1158 3.67231 42 6.00072 42H36.8127C37.181 42 37.4795 41.7031 37.4795 41.3368C37.4795 40.9705 37.181 40.6736 36.8127 40.6736H6.00072C4.40752 40.6736 3.11144 39.3846 3.11144 37.8V23.2821C3.21185 23.3095 3.31364 23.3341 3.41715 23.3543L19.0249 26.2307V33.195C19.0249 33.485 19.2144 33.7412 19.4929 33.8277L22.3378 34.7122C22.4025 34.732 22.4695 34.7423 22.5366 34.7423C22.6036 34.7423 22.6707 34.732 22.7353 34.7122L25.5803 33.8277C25.8588 33.7412 26.0483 33.485 26.0483 33.195V26.2307L41.6629 23.3533C41.764 23.3334 41.8634 23.3092 41.9617 23.2828V37.8C41.9617 39.3849 40.6656 40.6736 39.0724 40.6736H35.3014C34.9332 40.6736 34.6347 40.9705 34.6347 41.3368C34.6347 41.7031 34.9332 42 35.3014 42H39.0724C41.4009 42 43.295 40.1158 43.295 37.8V22.6535C44.3803 21.884 45.0732 20.6229 45.0732 19.2316V13.3956C45.0732 11.0798 43.1787 9.19561 40.8503 9.19561ZM13.7797 5.61464C13.7797 3.2499 15.714 1.32636 18.0916 1.32636H26.9816C29.3592 1.32636 31.2935 3.2499 31.2935 5.61464V6.54323H29.7822V5.61464C29.7822 4.07896 28.5256 2.82955 26.9816 2.82955H25.5036C25.1353 2.82955 24.8368 3.12643 24.8368 3.49239C24.8368 3.8587 25.1353 4.15557 25.5036 4.15557H26.9816C27.7904 4.15557 28.4486 4.8102 28.4486 5.61464V6.54323H27.8705C27.5022 6.54323 27.2037 6.8401 27.2037 7.20641V9.19596H17.8691V7.20641C17.8691 6.8401 17.5706 6.54323 17.2023 6.54323H16.6246V5.61464C16.6246 4.8102 17.2828 4.15557 18.0916 4.15557H26.539C26.9073 4.15557 27.2057 3.8587 27.2057 3.49239C27.2057 3.12643 26.9073 2.82955 26.539 2.82955H18.0916C16.5476 2.82955 15.291 4.07896 15.291 5.61464V6.54323H13.7797V5.61464ZM12.5352 9.19561V7.86925H16.5359V9.19561H12.5352ZM28.5373 9.19561V7.86925H32.538V9.19561H28.5373ZM20.3584 26.3422H24.7147V28.9064H20.3584V26.3422ZM24.7147 32.7073L22.5366 33.3845L20.3584 32.7073V30.2327H24.7147V32.7073Z" fill="#5CB874"/>
</svg>
