<?xml version="1.0" encoding="utf-8"?>
<!-- Generator: Adobe Illustrator 19.1.0, SVG Export Plug-In . SVG Version: 6.00 Build 0)  -->
<svg version="1.1" id="Layer_1" xmlns="http://www.w3.org/2000/svg" xmlns:xlink="http://www.w3.org/1999/xlink" x="0px" y="0px"
	 viewBox="0 0 1920 600.5" style="enable-background:new 0 0 1920 600.5;" xml:space="preserve">
<style type="text/css">
	.st0{opacity:0.5;}
	.st1{fill:#FFFFFF;}
	.st2{opacity:0.69;}
</style>
<g class="st0">
	<g>
		<g>
			<polygon class="st1" points="754.7,600.1 697.7,581.6 686,600.1 684.3,600.1 697.1,579.9 759.3,600.1 			"/>
		</g>
		<g>
			<polygon class="st1" points="949.8,600.1 929.7,570.1 927.7,600.1 926.3,600.1 928.5,565.8 951.6,600.1 			"/>
		</g>
		<g>
			<polygon class="st1" points="649.7,600.1 624.8,562.5 598.5,600.1 596.7,600.1 624.9,559.9 651.4,600.1 			"/>
		</g>
		<g>
			<polygon class="st1" points="926.3,600.1 928.3,569.3 880.1,600.1 877.4,600.1 929.9,566.6 927.8,600.1 			"/>
		</g>
		<g>
			<polygon class="st1" points="684.3,600.1 696.2,581.2 626.5,562.4 651.4,600.1 649.7,600.1 623.2,560 698.5,580.3 686,600.1 			
				"/>
		</g>
		<g>
			<polygon class="st1" points="813.6,600.1 714.2,488.1 698.2,580.3 759.4,600.1 754.7,600.1 697.2,581.5 696.6,581.3 713.3,485 
				815.5,600.1 			"/>
		</g>
		<g>
			<polygon class="st1" points="877.4,600.1 928.2,567.7 842.8,400.5 839,600.1 837.5,600.1 841.4,397.6 842.8,397.3 930,568.2 
				880.1,600.1 			"/>
		</g>
		<g>
			<path class="st1" d="M647.6,509l51.5,73l-75.3-20.3L647.6,509z M647.9,511.9l-22.1,48.8l69.8,18.9L647.9,511.9z"/>
		</g>
		<g>
			<path class="st1" d="M646.6,510.1l68-24.6l-16.9,97.2L646.6,510.1z M648.9,510.8l48,68.2l15.8-91.3L648.9,510.8z"/>
		</g>
		<g>
			<path class="st1" d="M635.4,452.6l80.2,34l-68.4,24.8L635.4,452.6z M637.4,455l10.9,54.5l63.4-23L637.4,455z"/>
		</g>
		<g>
			<path class="st1" d="M746.4,416.7l-32.3,70.8l-79.7-33.8L746.4,416.7z M743.7,419.1l-105.2,34.8l74.9,31.8L743.7,419.1z"/>
		</g>
		<g>
			<path class="st1" d="M562.6,500.4l0.4-0.2l63.9,62.1l-147.1-23.7L562.6,500.4z M562.8,501.9l-78,36l138,22.2L562.8,501.9z"/>
		</g>
		<g>
			<path class="st1" d="M588.1,39.1l75.3,256l-169.6-41.9L588.1,39.1z M587.8,43.3l-92,208.9l165.5,40.9L587.8,43.3z"/>
		</g>
		<g>
			<polygon class="st1" points="503.5,600.1 482,539.4 405.8,600.1 403.5,600.1 482.6,537.1 505,600.1 			"/>
		</g>
		<g>
			<polygon class="st1" points="596.7,600.1 623.6,561.7 483.4,539.2 505,600.1 503.5,600.1 481.2,537.4 626.1,560.6 598.5,600.1 
							"/>
		</g>
		<g>
			<path class="st1" d="M663.3,292.5L637,455l-101.1-69.6L663.3,292.5z M661.3,295.7l-123,89.6l97.6,67.2L661.3,295.7z"/>
		</g>
		<g>
			<polygon class="st1" points="403.5,600.1 481.1,538.3 380,463.7 400.6,600.1 399.1,600.1 378,460.5 483.5,538.2 405.8,600.1 			
				"/>
		</g>
		<g>
			<path class="st1" d="M538.3,384l-55.7,155.4L377.6,462L538.3,384z M535.8,386.8l-155.4,75.4L482,537.1L535.8,386.8z"/>
		</g>
		<g>
			<path class="st1" d="M493.7,251.7l170.4,42L537.5,386l-0.8,0.6L493.7,251.7z M495.8,253.8l41.6,130.4l123.2-89.8L495.8,253.8z"/>
		</g>
		<g>
			<path class="st1" d="M495.2,251.8l43,134.7l-207-78.9L495.2,251.8z M494.3,253.7l-158.8,54.1l200.4,76.4L494.3,253.7z"/>
		</g>
		<g>
			<polygon class="st1" points="207.6,1.4 193.3,33 266.7,1.4 270.3,1.4 190.5,35.8 206,1.4 			"/>
		</g>
		<g>
			<polygon class="st1" points="270.3,1.4 193.1,34.7 342.9,211.6 292.7,1.4 294.2,1.4 345,214.2 343.7,214.8 191.3,34.9 
				190.7,34.2 266.7,1.4 			"/>
		</g>
		<g>
			<polygon class="st1" points="294.2,1.4 344.6,212.7 467.7,45.7 320.9,1.4 326,1.4 470.1,44.9 343.9,216 292.7,1.4 			"/>
		</g>
		<g>
			<polygon class="st1" points="0.6,319.1 192.7,521.6 162.7,159.6 0.6,268.7 0.6,267 162.9,157.7 164,157 194.5,525.5 0.6,321.1 
							"/>
		</g>
		<g>
			<polygon class="st1" points="325.9,1.4 466.8,43.9 430.1,1.4 432,1.4 471.1,46.8 320.9,1.4 			"/>
		</g>
		<g>
			<polygon class="st1" points="49.4,1.4 79.4,27.9 86.8,1.4 88.3,1.4 80.5,29.3 80.2,30.5 47.3,1.4 			"/>
		</g>
		<g>
			<polygon class="st1" points="0.6,266.9 161.5,158.7 0.6,129.8 0.6,128.3 163.5,157.6 165.2,157.9 0.6,268.7 			"/>
		</g>
		<g>
			<polygon class="st1" points="0.6,128.4 161.8,157.3 79.5,30.1 0.6,64.5 0.6,62.9 80.1,28.2 164,157.9 164.9,159.3 0.6,129.8 			
				"/>
		</g>
		<g>
			<path class="st1" d="M920.4,561.5c-8.6,11.6,8.9,24.5,17.5,12.9C946.4,562.7,928.9,549.9,920.4,561.5z"/>
			<path class="st1" d="M837.1,393.9c-4.9,6.7,5.1,14,10,7.4C852,394.6,842,387.3,837.1,393.9z"/>
			<path class="st1" d="M688,573.9c-9.2,12.5,9.5,26.2,18.7,13.8C715.9,575.2,697.2,561.4,688,573.9z"/>
			<path class="st1" d="M704.2,479.5c-9.3,12.7,9.7,26.7,19,14C732.6,480.9,713.6,466.9,704.2,479.5z"/>
			<path class="st1" d="M736.4,411.5c-8.5,11.5,8.8,24.2,17.2,12.7C762.1,412.7,744.9,400,736.4,411.5z"/>
			<path class="st1" d="M618.4,556.4c-6.3,8.6,6.6,18.1,12.9,9.5C637.6,557.3,624.8,547.8,618.4,556.4z"/>
			<path class="st1" d="M639.7,504.5c-7.9,10.7,8.2,22.6,16.1,11.9C663.7,505.6,647.6,493.8,639.7,504.5z"/>
			<path class="st1" d="M629.8,448.9c-6.5,8.8,6.7,18.5,13.2,9.7C649.5,449.8,636.3,440.1,629.8,448.9z"/>
			<path class="st1" d="M556.8,496.5c-6,8.1,6.2,17.1,12.2,9C575,497.4,562.8,488.4,556.8,496.5z"/>
			<path class="st1" d="M779.1,162.8c-8.9,12.1,9.2,25.3,18.1,13.3C806,164,788,150.7,779.1,162.8z"/>
			<path class="st1" d="M653.1,287.3c-9.1,12.3,9.4,25.9,18.5,13.6C680.7,288.6,662.2,275,653.1,287.3z"/>
			<path class="st1" d="M475.3,533.1c-6.9,9.4,7.1,19.7,14.1,10.3C496.3,534.1,482.2,523.7,475.3,533.1z"/>
			<path class="st1" d="M384.8,600.1c0.5-2,1.4-4,2.9-6c9.3-12.6,25.7-5.5,28.3,6H384.8z"/>
			<path class="st1" d="M524.1,375.8c-12.8,17.3,13.2,36.4,26,19.1C562.8,377.6,536.9,358.5,524.1,375.8z"/>
			<path class="st1" d="M369.2,454.9c-9.6,13,9.9,27.5,19.6,14.4C398.4,456.3,378.8,441.9,369.2,454.9z"/>
			<path class="st1" d="M650.5,43.9c-11.2,15.2,11.6,32.1,22.9,16.8C684.6,45.5,661.7,28.6,650.5,43.9z"/>
			<path class="st1" d="M485.9,246.2c-8.7,11.8,9,25,17.8,13.1C512.4,247.5,494.6,234.4,485.9,246.2z"/>
			<path class="st1" d="M574.7,31.5c-13,17.7,13.5,37.2,26.5,19.5C614.2,33.3,587.7,13.8,574.7,31.5z"/>
			<path class="st1" d="M178.7,512.6c-14.6,19.9,15.1,41.8,29.8,21.9C223.1,514.7,193.3,492.7,178.7,512.6z"/>
			<path class="st1" d="M323.9,300.8c-9.3,12.6,9.6,26.6,18.9,14C352.2,302.1,333.2,288.1,323.9,300.8z"/>
			<path class="st1" d="M459.8,38.6c-9,12.2,9.3,25.7,18.3,13.5C487.1,39.9,468.8,26.4,459.8,38.6z"/>
			<path class="st1" d="M336.1,208.3c-8,10.9,8.3,22.9,16.3,12C360.4,209.5,344.2,197.5,336.1,208.3z"/>
			<path class="st1" d="M300.2,1.4c-5.6,5.6-13.4,4.4-18.2,0H300.2z"/>
			<path class="st1" d="M150.3,148.7c-12.8,17.3,13.2,36.5,26,19.2C189.1,150.5,163.1,131.4,150.3,148.7z"/>
			<path class="st1" d="M183.4,28.2c-8.3,11.3,8.6,23.8,16.9,12.5C208.7,29.4,191.7,16.9,183.4,28.2z"/>
			<path class="st1" d="M72.7,23.9c-7,9.6,7.3,20.1,14.3,10.6C94,24.9,79.7,14.3,72.7,23.9z"/>
		</g>
	</g>
	<g class="st2">
		<g>
			<path class="st1" d="M767.7,203.9l145.8-25.9l0.5,1.4l-150.7,80.8L767.7,203.9z M769.1,205.2l-4.1,52.6l144.4-77.5L769.1,205.2z"
				/>
		</g>
		<g>
			<path class="st1" d="M1045.9,261.4l-0.1-1.6l138.4,112.2l-128.5,119.4l-1.1,1.1L1045.9,261.4z M1047.3,263l8.5,226.4L1182,372.2
				L1047.3,263z"/>
		</g>
		<g>
			<path class="st1" d="M1046.1,262.1L965.7,82.7l438,234.7l-0.5,1.4L1046.1,262.1z M1047.1,260.8l352.1,55.9L968.7,86L1047.1,260.8
				z"/>
		</g>
		<g>
			<polygon class="st1" points="1117.1,600.1 1120.3,596.1 1063.8,600.1 1043.3,600.1 1123.5,594.4 1118.9,600.1 			"/>
		</g>
		<g>
			<path class="st1" d="M934.6,402.9l-0.6-0.5l113.3-143.1l8.7,233L934.6,402.9z M936,402.2l118.4,87.3l-8.5-226.1L936,402.2z"/>
		</g>
		<g>
			<path class="st1" d="M694.6,220.1l70.6,38.6l-90.4,119.7L694.6,220.1z M695.8,222.4l-18.9,150.8l86.2-114L695.8,222.4z"/>
		</g>
		<g>
			<path class="st1" d="M912.7,179.1l54.5-96.3l80.9,180.5L912.7,179.1z M914.7,178.5l130.3,81L967.1,86L914.7,178.5z"/>
		</g>
		<g>
			<path class="st1" d="M693.1,221l76-17.4l-4.4,56.6L693.1,221z M697.2,221.6l66.3,36.3l4.1-52.4L697.2,221.6z"/>
		</g>
		<g>
			<path class="st1" d="M737.7,112.4l178.7,66.6l-147.9,26.2l-0.6,0.1L737.7,112.4z M740,114.8l28.8,88.9l142.1-25.2L740,114.8z"/>
		</g>
		<g>
			<polygon class="st1" points="825.1,1.4 913.7,177.3 966.2,84.6 847.7,1.4 850.2,1.4 968.1,84.2 913.6,180.3 823.5,1.4 			"/>
		</g>
		<g>
			<path class="st1" d="M691,164.5l79.5,40.3l-76,17.4L691,164.5z M692.6,166.9l3.3,53.5l70.4-16.1L692.6,166.9z"/>
		</g>
		<g>
			<path class="st1" d="M690.6,165.9l48.6-53.7l30.4,93.8L690.6,165.9z M692.9,165.5l74.2,37.7L738.6,115L692.9,165.5z"/>
		</g>
		<g>
			<path class="st1" d="M653.9,120.3l86.8-7.6l-48.9,54.1L653.9,120.3z M656.7,121.5l35.1,43l45.3-50.1L656.7,121.5z"/>
		</g>
		<g>
			<path class="st1" d="M735.2,36.5l4.5,77.8l-86.2,7.6L735.2,36.5z M733.9,39.9L657.1,120l81-7.1L733.9,39.9z"/>
		</g>
		<g>
			<polygon class="st1" points="724.9,600.1 643.8,477.9 683.5,600.1 681.9,600.1 640.8,473.3 642.1,472.7 726.6,600.1 			"/>
		</g>
		<g>
			<path class="st1" d="M611.8,196.8l0.3-0.4l85.5,24.8l-141.1,48.2L611.8,196.8z M612.7,198.1l-52.1,68.5l132.3-45.2L612.7,198.1z"
				/>
		</g>
		<g>
			<polygon class="st1" points="436.5,1.4 437,8.9 467,1.4 473,1.4 435.7,10.8 435.1,1.4 			"/>
		</g>
		<g>
			<path class="st1" d="M558.3,266.8l119.6,109.9l-161.4-11.9l-1-0.1L558.3,266.8z M558.8,269.2l-41.2,94.3L673.8,375L558.8,269.2z"
				/>
		</g>
		<g>
			<path class="st1" d="M557.1,267.7L696,220.2l-19.7,157.1L557.1,267.7z M559.9,268.3l115.4,106.1l19.1-152L559.9,268.3z"/>
		</g>
		<g>
			<polygon class="st1" points="588.1,1.4 536.7,106.6 654.3,120.1 614.3,1.4 615.9,1.4 656.3,121.8 534.5,107.8 586.5,1.4 			"/>
		</g>
		<g>
			<path class="st1" d="M514.4,363.2l161.4,11.9l0.9,0.1l-35,99.1L514.4,363.2z M518.6,365l122.5,106.9l33.6-95.4L518.6,365z"/>
		</g>
		<g>
			<path class="st1" d="M430.1,248.3l129.4,19.1l-42.9,98.1L430.1,248.3z M433.3,250.2l83,112.5l41.1-94.1L433.3,250.2z"/>
		</g>
		<g>
			<path class="st1" d="M536.1,105.3l23.3,163.5l-128.9-19.1L536.1,105.3z M535.1,109L433,248.7l124.7,18.4L535.1,109z"/>
		</g>
		<g>
			<polygon class="st1" points="472.9,1.4 437.8,10.2 535.4,106 586.5,1.4 588.1,1.4 536.3,107.5 535.8,108.4 434.9,9.5 467,1.4 			
				"/>
		</g>
		<g>
			<path class="st1" d="M436.4,8.8l100.8,98.9l-219.7,27.5L436.4,8.8z M436.4,10.9L321.3,133.3L534,106.6L436.4,10.9z"/>
		</g>
		<g>
			<polygon class="st1" points="174.4,1.4 283,44.8 244.9,1.4 246.8,1.4 286,46.1 285.2,47.3 170.5,1.4 			"/>
		</g>
		<g>
			<polygon class="st1" points="246.8,1.4 285,44.9 291.6,1.4 293,1.4 286,48.2 244.8,1.4 			"/>
		</g>
		<g>
			<polygon class="st1" points="0.6,290.5 294.8,389.3 99.5,83.5 0.6,268.2 0.6,265.1 98.8,81.7 99.4,80.6 298.2,392 0.6,292 			"/>
		</g>
		<g>
			<polygon class="st1" points="0.6,265.1 98,83.3 0.6,114.6 0.6,113.1 99.2,81.4 100.9,80.8 0.6,268.2 			"/>
		</g>
		<g>
			<polygon class="st1" points="0.6,113.1 97.7,81.9 0.6,27.7 0.6,26 99.8,81.4 101.3,82.3 0.6,114.6 			"/>
		</g>
		<g>
			<path class="st1" d="M1382,578.6c-2.7,17.7,23.8,21.6,26.5,3.9C1411.1,564.8,1384.6,560.9,1382,578.6z"/>
			<path class="st1" d="M1392.9,316.5c-2.1,14,18.8,17.1,20.9,3.1C1415.9,305.7,1395,302.6,1392.9,316.5z"/>
			<path class="st1" d="M1172.1,370.5c-2.2,14.7,19.8,17.9,22,3.2C1196.3,359.1,1174.3,355.8,1172.1,370.5z"/>
			<path class="st1" d="M1134.9,600.1h-26.1c-0.6-2-0.9-4.3-0.5-6.8c2.8-18.2,30-14.2,27.3,4
				C1135.4,598.3,1135.2,599.2,1134.9,600.1z"/>
			<path class="st1" d="M1043.1,489.2c-2.4,16.1,21.6,19.6,24.1,3.6C1069.6,476.7,1045.6,473.1,1043.1,489.2z"/>
			<path class="st1" d="M1028.6,258.7c-3.6,24,32.3,29.4,36,5.3C1068.2,240,1032.2,234.7,1028.6,258.7z"/>
			<path class="st1" d="M909.1,600.1c6.4-10.8,22.8-9.8,28.9,0H909.1z"/>
			<path class="st1" d="M924.5,400.8c-2.1,14,18.9,17.1,21,3.1C947.6,389.9,926.6,386.8,924.5,400.8z"/>
			<path class="st1" d="M956.5,82.8c-2.2,14.3,19.3,17.5,21.4,3.2C980.1,71.6,958.6,68.5,956.5,82.8z"/>
			<path class="st1" d="M902.8,177.2c-2.2,14.5,19.6,17.8,21.8,3.2C926.8,165.9,905,162.7,902.8,177.2z"/>
			<path class="st1" d="M836.2,328.7c-1.5,10.2,13.7,12.4,15.2,2.2C852.9,320.8,837.7,318.5,836.2,328.7z"/>
			<path class="st1" d="M747.3,256.6c-3.4,22.4,30.2,27.4,33.6,4.9C784.3,239.1,750.7,234.1,747.3,256.6z"/>
			<path class="st1" d="M756.9,202.9c-2.3,15.3,20.6,18.7,23,3.4C782.2,190.9,759.2,187.5,756.9,202.9z"/>
			<path class="st1" d="M727.2,111.9c-2.4,15.6,21,19,23.3,3.5C752.9,99.7,729.6,96.3,727.2,111.9z"/>
			<path class="st1" d="M724,36.6c-2.1,14.1,19,17.2,21.1,3.1S726.1,22.5,724,36.6z"/>
			<path class="st1" d="M663.1,374c-2.5,16.9,22.8,20.7,25.4,3.8C691,360.8,665.7,357,663.1,374z"/>
			<path class="st1" d="M687.3,220.1c-1.6,10.6,14.2,12.9,15.8,2.4C704.7,211.9,688.9,209.5,687.3,220.1z"/>
			<path class="st1" d="M681.9,164.2c-2,13.2,17.8,16.1,19.8,2.9C703.6,153.9,683.9,151,681.9,164.2z"/>
			<path class="st1" d="M632.7,471.8c-1.8,11.8,15.9,14.4,17.6,2.6C652.1,462.6,634.5,460,632.7,471.8z"/>
			<path class="st1" d="M647.2,119.7c-1.6,10.8,14.5,13.2,16.2,2.4C665,111.3,648.8,108.9,647.2,119.7z"/>
			<path class="st1" d="M604.9,196.1c-1.5,10,13.4,12.2,14.9,2.2C621.3,188.4,606.4,186.2,604.9,196.1z"/>
			<path class="st1" d="M549.9,266.7c-1.7,11.5,15.5,14.1,17.3,2.5C568.9,257.7,551.6,255.2,549.9,266.7z"/>
			<path class="st1" d="M501,361.8c-3.1,20.8,28,25.4,31.1,4.6C535.2,345.6,504.1,341,501,361.8z"/>
			<path class="st1" d="M519.7,104.8c-3.2,21.3,28.6,26,31.8,4.7C554.8,88.2,522.9,83.5,519.7,104.8z"/>
			<path class="st1" d="M419.7,247.5c-2.4,16,21.6,19.6,24,3.6C446.1,235,422.1,231.4,419.7,247.5z"/>
			<path class="st1" d="M429,1.4h14.7c2.6,2.1,4.3,5.6,3.6,10.1c-2.2,14.6-24,11.3-21.8-3.2C425.9,5.2,427.2,2.9,429,1.4z"/>
			<path class="st1" d="M278.2,387.9c-3.7,24.4,32.9,29.8,36.6,5.4C318.5,368.9,281.9,363.5,278.2,387.9z"/>
			<path class="st1" d="M307.8,132.5c-2.3,15.6,20.9,19,23.3,3.5C333.4,120.4,310.1,117,307.8,132.5z"/>
			<path class="st1" d="M275.5,45.1c-2,13.4,18,16.3,20,2.9C297.5,34.7,277.5,31.8,275.5,45.1z"/>
			<path class="st1" d="M83.5,79.7c-3.2,21.3,28.7,26,31.9,4.7C118.6,63.1,86.7,58.4,83.5,79.7z"/>
			<path class="st1" d="M0.6,280.1c1.6,2.4,2.4,5.5,1.8,9.3c-0.3,2-0.9,3.8-1.8,5.2V280.1z"/>
		</g>
	</g>
	<g>
		<g>
			<polygon class="st1" points="434.7,600.1 447.4,539.2 337.4,441.4 423.4,600.1 421.7,600.1 334.2,438.5 335.3,437.6 448.6,538.3 
				448.9,538.6 436.2,600.1 			"/>
		</g>
		<g>
			<polygon class="st1" points="536.6,600.1 535.4,530.4 453.2,600.1 451,600.1 536.7,527.3 538,600.1 			"/>
		</g>
		<g>
			<polygon class="st1" points="148.3,600.1 52.9,463.9 10.8,597.2 32.3,600.1 21.5,600.1 9.8,598.5 8.9,598.4 52.4,460.7 
				150.1,600.1 			"/>
		</g>
		<g>
			<polygon class="st1" points="178.6,600.1 333,439 54,462.9 150.1,600.1 148.3,600.1 51.3,461.7 334.8,437.4 336.7,437.3 
				180.6,600.1 			"/>
		</g>
		<g>
			<polygon class="st1" points="0.6,366.6 52.3,460.2 77.9,311.6 0.6,366.6 0.6,364.8 79.9,308.4 53,464.5 0.6,369.6 			"/>
		</g>
		<g>
			<path class="st1" d="M52.7,463l-0.9,0.1l26.6-154.2l259.1,129.7L52.7,463z M53.5,461.5l278.7-23.9L79.4,311.1L53.5,461.5z"/>
		</g>
		<g>
			<polygon class="st1" points="8.2,600.1 8.9,598.2 0.6,594.9 0.6,593.4 10.1,597.1 10.8,597.4 9.7,600.1 			"/>
		</g>
		<g>
			<polygon class="st1" points="0.6,593.4 5.5,595.3 0.6,591.4 0.6,589.6 10.3,597.2 9.6,598.5 0.6,594.9 			"/>
		</g>
		<g>
			<path class="st1" d="M526.2,535.9c9.3,13.3,29.1-0.8,19.8-14.1C536.6,508.5,516.9,522.6,526.2,535.9z"/>
			<path class="st1" d="M441.4,543.7c6.4,9.1,19.9-0.6,13.6-9.7C448.5,525,435,534.6,441.4,543.7z"/>
			<path class="st1" d="M329.3,442.1c5.2,7.4,16.3-0.5,11.1-7.9C335.2,426.8,324.1,434.7,329.3,442.1z"/>
			<path class="st1" d="M69.7,316.5c8.6,12.3,27-0.8,18.3-13.1C79.4,291.2,61.1,304.3,69.7,316.5z"/>
			<path class="st1" d="M0.6,350c4.4,0.2,8.8,2.2,12.2,7.1c8.5,12.1-1.2,24.7-12.2,25.7V350z"/>
			<path class="st1" d="M42.1,469.8c9.9,14.1,31-0.9,21.1-15S32.2,455.7,42.1,469.8z"/>
			<path class="st1" d="M0.6,600.1v-5.9c2.6-6.3,12-9.6,17.2-2.1c1.9,2.8,2.3,5.5,1.7,8H0.6z"/>
		</g>
	</g>
	<g>
		<g>
			<path class="st1" d="M374.6,37.7L375,37l81.3,36.6l0.2,0.1l4.7,48.3L374.6,37.7z M376.9,38.7l83.3,81.1l-4.4-45.5L376.9,38.7z"/>
		</g>
		<g>
			<path class="st1" d="M619.6,278.8l-0.3-0.1l6.1-104.2l81.2,139.2L619.6,278.8z M620.2,278.1l84.5,33.8l-78.5-134.6L620.2,278.1z"
				/>
		</g>
		<g>
			<path class="st1" d="M460,121.3L504,51.9l24.9,75.3L460,121.3z M461.5,120.6l66.1,5.6l-23.9-72.3L461.5,120.6z"/>
		</g>
		<g>
			<path class="st1" d="M518.7,177.6l-0.3-0.8l31.7-19l0.1-0.1l32,7.2l0,0.8L518.7,177.6z M520.8,176.3l59.2-11l-29.7-6.7
				L520.8,176.3z"/>
		</g>
		<g>
			<path class="st1" d="M459.6,120.4l69.1,5.9l-9.8,51.7L459.6,120.4z M461.9,121.5l56.4,54.8l9.4-49.2L461.9,121.5z"/>
		</g>
		<g>
			<path class="st1" d="M518,178l10-52.4l22.9,32.7L518,178z M519.2,176.3l30.5-18.3l-21.2-30.3L519.2,176.3z"/>
		</g>
		<g>
			<path class="st1" d="M773.1,492.6l-75.2-52.2l-0.2-0.2l6-31.4l70,83.2L773.1,492.6z M698.5,439.9l72.4,50.2l-66.8-79.4
				L698.5,439.9z"/>
		</g>
		<g>
			<path class="st1" d="M476.8,429.3l-26.3-35.1l124.6-34.8l0.4,0.8L476.8,429.3z M477,428.1l95.9-67.2l-121,33.8L477,428.1z"/>
		</g>
		<g>
			<path class="st1" d="M554.8,272.6l71.6-98.1l-6.1,103.9l0,0.4L554.8,272.6z M556.3,271.9l63.1,6l5.9-100.6L556.3,271.9z"/>
		</g>
		<g>
			<path class="st1" d="M476.9,429.1l-1.5,0.1l99.5-69.8l0.3-0.2l61,61.7L476.9,429.1z M478.4,428.2l155.9-8l-59.2-59.9L478.4,428.2
				z"/>
		</g>
		<g>
			<path class="st1" d="M220.2,184.8l-0.5,0.1l0.4-85l90.2,69.6L220.2,184.8z M220.6,183.8l87.7-15l-87.3-67.3L220.6,183.8z"/>
		</g>
		<g>
			<path class="st1" d="M635.2,421l0.1-0.8l69.1-10.9l-6,31.3L635.2,421z M637.2,420.7l60.6,18.8l5.6-29.2L637.2,420.7z"/>
		</g>
		<g>
			<path class="st1" d="M219.7,100.6l155-63.6l1-0.4l-66.3,133.2L219.7,100.6z M221.4,100.8l87.8,67.7L374,38.2L221.4,100.8z"/>
		</g>
		<g>
			<polygon class="st1" points="755.4,600.1 772.7,493.5 700.3,562.8 752.2,600.1 750.7,600.1 699.4,563.2 699,562.9 773.9,491.1 
				756.2,600.1 			"/>
		</g>
		<g>
			<path class="st1" d="M346.2,264.6l-0.3,0l-12.4-30.5l164.7,22.4l0,0.8L346.2,264.6z M346.5,263.7l147-7l-158.7-21.6L346.5,263.7z
				"/>
		</g>
		<g>
			<path class="st1" d="M173.4,56.1l35.5-46.7l12.2,92.4L173.4,56.1z M174.5,56l45.4,43.5l-11.6-88L174.5,56z"/>
		</g>
		<g>
			<path class="st1" d="M220.7,101.1l-0.5,0.2L208.1,9.9l168.3,27.2L220.7,101.1z M220.9,100.1l152.4-62.5L209.1,10.9L220.9,100.1z"
				/>
		</g>
		<g>
			<path class="st1" d="M371.6,475.4L477.4,428l-14,117.4l-0.1,0.7L371.6,475.4z M373.3,475.6l89.4,68.9l13.7-115.1L373.3,475.6z"/>
		</g>
		<g>
			<path class="st1" d="M346,264.6l0.2-0.8l152.8-7.3L461,318l-0.2,0.3L346,264.6z M348,264.5l112.5,52.6l36.9-59.8L348,264.5z"/>
		</g>
		<g>
			<path class="st1" d="M699.2,563.8L697.6,440l0-0.8l75.9,52.7l0.4,0.3L699.2,563.8z M700,561.8l72.6-69.5l-74.1-51.4L700,561.8z"
				/>
		</g>
		<g>
			<path class="st1" d="M699.2,563l-64.3-142.2l-0.4-0.9l63.7,19.7l0.3,0.1l1.6,123.1L699.2,563z M636.1,421.3l63.1,139.5
				l-1.5-120.4L636.1,421.3z"/>
		</g>
		<g>
			<path class="st1" d="M91.8,175.6l-0.8-0.8l129.2,9.2l0.4,0l-8,113l-0.1,0.9L91.8,175.6z M93.2,175.8l118.7,120.2l7.8-111.2
				L93.2,175.8z"/>
		</g>
		<g>
			<path class="st1" d="M451.4,394.8l-0.6,0.2l9.5-77.3l0.1-0.5l115.1,42.2l1.2,0.5L451.4,394.8z M451.7,393.8l122.1-34.1L461,318.3
				L451.7,393.8z"/>
		</g>
		<g>
			<path class="st1" d="M237.6,251.3l71.8-83l25.2,66.2l0.2,0.5L237.6,251.3z M239.8,250.1l93.8-15.8l-24.5-64.4L239.8,250.1z"/>
		</g>
		<g>
			<path class="st1" d="M91,175.6l33.2-28.1l96.1,36.4l-0.2,0.8L91,175.6z M93.1,174.9l124.2,8.8l-93-35.2L93.1,174.9z"/>
		</g>
		<g>
			<path class="st1" d="M506.3,538.2l-0.5,0.5l-29.4-110.4l160.1-8.2L506.3,538.2z M506.2,537.1l127.9-116.1l-156.7,8L506.2,537.1z"
				/>
		</g>
		<g>
			<path class="st1" d="M212.1,297.3l-0.4-0.2l27-47.2l49.1,82.3L212.1,297.3z M212.8,296.7l72.8,33.5l-47-78.7L212.8,296.7z"/>
		</g>
		<g>
			<polygon class="st1" points="698.4,600.1 699.2,563.3 540.9,599.2 541.9,600.1 540.7,600.1 539.2,598.7 699.5,562.4 700.1,562.3 
				699.2,600.1 			"/>
		</g>
		<g>
			<path class="st1" d="M539.8,599.3l-77-53.6l-0.9-0.6l44.3-7.6l34.2,61.3L539.8,599.3z M464.1,545.6l74.7,52l-33-59.2L464.1,545.6
				z"/>
		</g>
		<g>
			<path class="st1" d="M10.7,202.8l-0.4-0.5l82.3-27.7L70.5,280l-0.2,0.9L10.7,202.8z M11.7,202.7l58.1,76.2l21.7-103L11.7,202.7z"
				/>
		</g>
		<g>
			<path class="st1" d="M540.1,599.3l-0.3,0.1l-34.2-61.3l-0.4-0.7l194.5,25l0,0.8L540.1,599.3z M540.3,598.4l156.9-35.5
				l-190.4-24.5L540.3,598.4z"/>
		</g>
		<g>
			<path class="st1" d="M10.2,203.2L60.5,94.8l32,80.3l0.2,0.4L10.2,203.2z M11.8,201.8L91.5,175L60.4,96.9L11.8,201.8z"/>
		</g>
		<g>
			<path class="st1" d="M211.6,296.1l75.3,34.7l0.4,0.2l-45.7,75.4l-0.5,0.9L211.6,296.1z M212.9,297.7l28.6,107.4l44.7-73.7
				L212.9,297.7z"/>
		</g>
		<g>
			<polygon class="st1" points="0.6,336.1 78.8,351.2 0.6,305.8 0.6,304.8 81.4,351.8 81.1,352.6 0.6,337 			"/>
		</g>
		<g>
			<path class="st1" d="M499.5,58.6c7.6,5.8,16.2-5.6,8.7-11.4C500.6,41.4,492,52.8,499.5,58.6z"/>
			<path class="st1" d="M572,118.1c5.7,4.4,12.3-4.2,6.6-8.6C572.9,105.1,566.3,113.7,572,118.1z"/>
			<path class="st1" d="M621.2,182c8.1,6.2,17.3-5.9,9.2-12.2C622.4,163.6,613.1,175.8,621.2,182z"/>
			<path class="st1" d="M578.3,170.4c6.7,5.2,14.4-5,7.7-10.2C579.3,155.1,571.5,165.3,578.3,170.4z"/>
			<path class="st1" d="M524,132.2c7.3,5.7,15.8-5.4,8.4-11.1C525.1,115.5,516.6,126.5,524,132.2z"/>
			<path class="st1" d="M453.2,77.9c5.2,4,11.1-3.8,5.9-7.8C454,66.1,448,73.9,453.2,77.9z"/>
			<path class="st1" d="M548,161.1c3.9,3,8.3-2.9,4.4-5.8C548.6,152.3,544.2,158.1,548,161.1z"/>
			<path class="st1" d="M372.4,40.6c4.2,3.2,9.1-3.1,4.9-6.4C373.1,30.9,368.2,37.3,372.4,40.6z"/>
			<path class="st1" d="M457.5,125.2c5.7,4.4,12.2-4.2,6.5-8.6C458.3,112.3,451.8,120.9,457.5,125.2z"/>
			<path class="st1" d="M700.5,319.6c9,6.9,19.3-6.6,10.3-13.6C701.9,299.1,691.6,312.6,700.5,319.6z"/>
			<path class="st1" d="M514.1,183.1c7.9,6.1,17-5.8,9.1-11.9C515.2,165.1,506.2,177,514.1,183.1z"/>
			<path class="st1" d="M615.8,283.6c7,5.4,15-5.2,8-10.5C616.8,267.7,608.8,278.3,615.8,283.6z"/>
			<path class="st1" d="M552,276.9c6.2,4.8,13.3-4.6,7.1-9.4C552.9,262.8,545.8,272.1,552,276.9z"/>
			<path class="st1" d="M204.6,15.7c7,5.4,15-5.2,8-10.6C205.6-0.2,197.6,10.3,204.6,15.7z"/>
			<path class="st1" d="M699.9,414.9c6.8,5.2,14.6-5,7.8-10.3C700.9,399.3,693.1,409.6,699.9,414.9z"/>
			<path class="st1" d="M495.2,260.9c5.3,4.1,11.4-3.9,6.1-8C495.9,248.9,489.9,256.9,495.2,260.9z"/>
			<path class="st1" d="M768,499.2c9.2,7.1,19.7-6.8,10.5-13.8C769.4,478.3,758.9,492.1,768,499.2z"/>
			<path class="st1" d="M693.7,445.9c7.7,5.9,16.5-5.7,8.8-11.6C694.8,428.3,686,439.9,693.7,445.9z"/>
			<path class="st1" d="M570.9,365.4c7.5,5.8,16.1-5.5,8.6-11.3C572,348.3,563.4,359.6,570.9,365.4z"/>
			<path class="st1" d="M168.2,63.6c10,7.7,21.5-7.4,11.5-15.1C169.7,40.8,158.2,55.9,168.2,63.6z"/>
			<path class="st1" d="M215.9,106.7c8,6.2,17.3-5.9,9.2-12.1C217.1,88.4,207.9,100.5,215.9,106.7z"/>
			<path class="st1" d="M303.4,176.9c10.3,7.9,22-7.6,11.8-15.5C304.9,153.5,293.1,168.9,303.4,176.9z"/>
			<path class="st1" d="M631.5,425.6c6.7,5.2,14.3-4.9,7.7-10.1C632.5,410.4,624.8,420.5,631.5,425.6z"/>
			<path class="st1" d="M456.5,323.2c7.3,5.6,15.6-5.4,8.3-11C457.6,306.6,449.2,317.6,456.5,323.2z"/>
			<path class="st1" d="M329.4,241c8.4,6.5,18-6.2,9.6-12.7C330.6,221.9,321,234.5,329.4,241z"/>
			<path class="st1" d="M343.1,268.3c5.4,4.2,11.6-4,6.2-8.2C343.9,255.9,337.7,264.1,343.1,268.3z"/>
			<path class="st1" d="M216.7,188.9c6.1,4.7,13.1-4.5,7-9.2C217.6,175,210.6,184.2,216.7,188.9z"/>
			<path class="st1" d="M750.1,600.1c1.6-2.9,5.3-4.6,8.8-1.9c0.8,0.6,1.3,1.3,1.7,1.9H750.1z"/>
			<path class="st1" d="M694.8,569.2c8.4,6.5,18.1-6.2,9.7-12.7C696,549.9,686.4,562.7,694.8,569.2z"/>
			<path class="st1" d="M359,330.6c8.6,6.6,18.4-6.3,9.8-12.9C360.2,311.1,350.4,324,359,330.6z"/>
			<path class="st1" d="M447.3,399.5c6.8,5.2,14.6-5,7.8-10.3C448.4,384,440.5,394.3,447.3,399.5z"/>
			<path class="st1" d="M55.5,102.4c8.6,6.6,18.4-6.3,9.8-13C56.8,82.8,46.9,95.7,55.5,102.4z"/>
			<path class="st1" d="M119.5,154.3c8.3,6.4,17.9-6.2,9.6-12.6C120.7,135.3,111.1,147.9,119.5,154.3z"/>
			<path class="st1" d="M472.9,434c7.1,5.5,15.2-5.2,8.1-10.7C473.9,417.9,465.8,428.6,472.9,434z"/>
			<path class="st1" d="M233.4,257.7c9.3,7.2,19.9-6.9,10.6-14C234.7,236.6,224.1,250.6,233.4,257.7z"/>
			<path class="st1" d="M88,180.5c7,5.4,15-5.2,8-10.6C89.1,164.6,81,175.1,88,180.5z"/>
			<path class="st1" d="M282.9,336.2c6.7,5.1,14.3-4.9,7.6-10.1C283.9,321,276.2,331.1,282.9,336.2z"/>
			<path class="st1" d="M209.3,300.8c5.2,4,11.1-3.8,5.9-7.8C210,289,204.1,296.8,209.3,300.8z"/>
			<path class="st1" d="M499.6,546.3c11.1,8.6,23.9-8.2,12.8-16.8C501.2,520.9,488.5,537.7,499.6,546.3z"/>
			<path class="st1" d="M327.4,417.5c7.2,5.5,15.4-5.3,8.2-10.8C328.5,401.2,320.3,412,327.4,417.5z"/>
			<path class="st1" d="M531.2,600.1c-0.8-6.8,7.1-13.6,14.2-8.2c3,2.3,3.9,5.4,3.5,8.2H531.2z"/>
			<path class="st1" d="M459.6,549.9c6,4.7,13-4.5,6.9-9.1C460.4,536.1,453.5,545.2,459.6,549.9z"/>
			<path class="st1" d="M369.5,479.4c5.2,4,11.1-3.8,5.9-7.8C370.2,467.5,364.3,475.4,369.5,479.4z"/>
			<path class="st1" d="M5,210.4c10.5,8.1,22.5-7.8,12-15.8C6.6,186.5-5.4,202.3,5,210.4z"/>
			<path class="st1" d="M236,413.1c9.3,7.2,19.9-6.9,10.6-14C237.3,392,226.7,406,236,413.1z"/>
			<path class="st1" d="M66.7,284.3c5.9,4.6,12.7-4.4,6.8-8.9C67.5,270.8,60.7,279.8,66.7,284.3z"/>
			<path class="st1" d="M402.1,557.5c5.9,4.5,12.7-4.4,6.8-8.9C403,544,396.2,552.9,402.1,557.5z"/>
			<path class="st1" d="M145,396.7c8.2,6.3,17.7-6.1,9.4-12.4C146.2,378,136.8,390.4,145,396.7z"/>
			<path class="st1" d="M77.2,357.4c7,5.4,14.9-5.1,8-10.5C78.2,341.5,70.3,352,77.2,357.4z"/>
		</g>
	</g>
</g>
</svg>
